<?xml version="1.0" encoding="UTF-8"?>
<svg width="100px" height="40px" viewBox="0 0 100 40" version="1.1" xmlns="http://www.w3.org/2000/svg" xmlns:xlink="http://www.w3.org/1999/xlink">
    <!-- Generator: Sketch 52.2 (67145) - http://www.bohemiancoding.com/sketch -->
    <title>amazonwebservices-plain-wordmark</title>
    <desc>Created with Sketch.</desc>
    <g id="Page-1" stroke="none" stroke-width="1" fill="none" fill-rule="evenodd">
        <g id="Letter" transform="translate(-152.000000, -597.000000)" fill="#C2D0D9" fill-rule="nonzero">
            <g id="amazonwebservices-plain-wordmark" transform="translate(152.000000, 597.000000)">
                <path d="M34.6301587,14.5722222 C32.5674603,14.5722222 30.265873,15.3666667 29.7833333,17.981746 C29.7325397,18.2603175 29.915873,18.3920635 30.0936508,18.431746 L32.2071429,18.6857143 C32.402381,18.6746032 32.5357143,18.4634921 32.5730159,18.2626984 C32.7539683,17.3626984 33.4936508,16.9380952 34.3198413,16.9380952 C34.7666667,16.9380952 35.2666667,17.0912698 35.531746,17.5015873 C35.834127,17.9587302 35.8126984,18.5801587 35.8126984,19.1079365 L35.8126984,19.418254 C34.5571429,19.5626984 32.9031746,19.65 31.7277778,20.1785714 C30.3714286,20.781746 29.4166667,22.0095238 29.4166667,23.8134921 C29.4166667,26.1253968 30.8333333,27.2785714 32.6571429,27.2785714 C34.1968254,27.2785714 35.0484127,26.9166667 36.2357143,25.6738095 C36.6301587,26.2595238 36.7563492,26.5253968 37.4753968,27.1388889 C37.6357143,27.2246032 37.8388889,27.2166667 37.9833333,27.0825397 L37.9833333,27.1103175 C38.415873,26.715873 39.2015873,25.9984127 39.6452381,25.6174603 C39.8214286,25.4690476 39.7833333,25.2261905 39.6452381,25.0253968 C39.2484127,24.4642857 38.8285714,24.0126984 38.8285714,22.968254 L38.8285714,19.5031746 C38.8285714,18.0349206 38.952381,16.6809524 37.8984127,15.6714286 C37.068254,14.8531746 35.6833333,14.5722222 34.6301587,14.5722222 Z M63.031746,14.5722222 C60.968254,14.5722222 58.668254,15.3666667 58.1857143,17.981746 C58.1349206,18.2603175 58.3174603,18.3920635 58.4952381,18.431746 L60.6095238,18.6857143 C60.8047619,18.6746032 60.9388889,18.4634921 60.9753968,18.2626984 C61.1571429,17.3626984 61.8968254,16.9380952 62.7222222,16.9380952 C63.1698413,16.9380952 63.6690476,17.0912698 63.9333333,17.5015873 C64.2357143,17.9587302 64.1865079,18.5801587 64.1865079,19.1079365 L64.1865079,19.418254 C62.9309524,19.5626984 61.3055556,19.65 60.1293651,20.1785714 C58.7714286,20.781746 57.8198413,22.0095238 57.8198413,23.8134921 C57.8198413,26.1253968 59.2365079,27.2785714 61.0595238,27.2785714 C62.597619,27.2785714 63.4492063,26.9166667 64.6380952,25.6738095 C65.0309524,26.2595238 65.1587302,26.5253968 65.8785714,27.1388889 C66.0396825,27.2246032 66.2420635,27.2166667 66.3857143,27.0825397 L66.3857143,27.1103175 C66.8190476,26.715873 67.6055556,25.9984127 68.0484127,25.6174603 C68.2246032,25.4690476 68.184127,25.2261905 68.0484127,25.0253968 C67.6515873,24.4642857 67.2309524,24.0126984 67.2309524,22.968254 L67.2309524,19.5031746 C67.2309524,18.0349206 67.3261905,16.6809524 66.2738095,15.6714286 C65.4404762,14.8531746 64.084127,14.5722222 63.031746,14.5722222 Z M47.0555556,14.6849206 C45.7222222,14.6849206 44.7349206,15.3579365 44.2103175,16.7984127 L44.181746,16.7984127 L44.181746,15.3047619 C44.1674603,15.0968254 43.9992063,14.9214286 43.7880952,14.9103175 L41.7587302,14.9103175 C41.5285714,14.9103175 41.3357143,15.1047619 41.3357143,15.3333333 L41.3357143,26.7444444 C41.3531746,26.9468254 41.5246032,27.1246032 41.7309524,27.1388889 L43.9,27.1388889 C44.131746,27.1388889 44.3214286,26.9460317 44.3222222,26.715873 L44.3222222,20.6579365 C44.3222222,19.3373016 44.2587302,17.5309524 45.815873,17.5309524 C47.3531746,17.5309524 47.1396825,19.3873016 47.1396825,20.6579365 L47.1396825,26.715873 C47.1396825,26.9309524 47.315873,27.1246032 47.5349206,27.1388889 L49.7039683,27.1388889 C49.934127,27.1388889 50.1261905,26.9460317 50.1261905,26.715873 L50.1261905,20.6579365 C50.1261905,20.0103175 50.1,19.065873 50.3230159,18.4888889 C50.5460317,17.9119048 51.0936508,17.5309524 51.6198413,17.5309524 C52.2460317,17.5309524 52.7261905,17.7492063 52.8880952,18.5166667 C52.9880952,18.9730159 52.9444444,20.1785714 52.9444444,20.6579365 L52.9444444,26.715873 C52.9444444,26.9309524 53.1206349,27.1246032 53.3380952,27.1388889 L55.5079365,27.1388889 C55.7380952,27.1388889 55.9301587,26.9460317 55.9301587,26.715873 L55.9301587,19.5031746 C55.9301587,18.2769841 56.052381,16.8857143 55.3666667,15.9246032 C54.7595238,15.0611111 53.7674603,14.684127 52.8587302,14.684127 C51.5849206,14.684127 50.397619,15.3571429 49.8722222,16.797619 C49.265873,15.3579365 48.4103175,14.6849206 47.0555556,14.6849206 Z M83.9380952,14.6849206 C80.8039683,14.6849206 79.0634921,17.4412698 79.0634921,20.9968254 C79.0634921,24.5269841 80.7833333,27.3634921 83.9380952,27.3634921 C86.9722222,27.3634921 88.897619,24.5920635 88.897619,21.1087302 C88.897619,17.5079365 87.1531746,14.6849206 83.9380952,14.6849206 Z M96.3071429,14.6849206 C94.8095238,14.6849206 93.9531746,15.4333333 93.3484127,16.9952381 L93.3206349,16.9952381 L93.3206349,15.2484127 C93.281746,15.0722222 93.115873,14.9492063 92.9261905,14.9388889 L90.9253968,14.9388889 C90.7071429,14.9388889 90.5222222,15.0968254 90.502381,15.3047619 L90.502381,26.715873 C90.502381,26.9309524 90.6809524,27.1246032 90.8968254,27.1388889 L93.0388889,27.1388889 C93.268254,27.1388889 93.4571429,26.9468254 93.4603175,26.715873 L93.4603175,20.5738095 C93.4603175,19.8039683 93.5261905,19.1015873 93.8277778,18.4047619 C94.0706349,17.8515873 94.5412698,17.502381 95.0674603,17.502381 C96.5619048,17.502381 96.4190476,19.3238095 96.4190476,20.5738095 L96.4190476,26.7730159 C96.4412698,26.9666667 96.6166667,27.1261905 96.8142857,27.1396825 L98.9833333,27.1396825 C99.1968254,27.1396825 99.3809524,26.9777778 99.4055556,26.7730159 L99.4055556,19.5880952 C99.4055556,18.4833333 99.4079365,16.95 98.8420635,16.0373016 C98.2357143,15.052381 97.2746032,14.6849206 96.3071429,14.6849206 Z M70.2730159,14.8825397 C70.052381,14.8825397 69.8785714,15.0571429 69.8777778,15.3047619 L69.8777778,16.9388889 C69.8785714,17.1849206 70.0468254,17.3603175 70.2730159,17.3619048 L73.9920635,17.3619048 L69.7373016,23.6444444 C69.4785714,24.05 69.4563492,24.5087302 69.4563492,24.7722222 L69.4563492,26.4349206 C69.4563492,26.6746032 69.7166667,26.9349206 69.9634921,26.8007937 C72.3888889,25.4769841 75.2944444,25.5944444 77.4865079,26.7730159 C77.7531746,26.918254 78.0222222,26.6460317 78.0222222,26.4063492 L78.0222222,24.6587302 C78.0015873,24.4253968 77.9095238,24.2015873 77.6277778,24.0388889 C76.3833333,23.3238095 74.9388889,23.1039683 73.5714286,23.1373016 L77.2619048,17.7285714 C77.6031746,17.2420635 77.7936508,16.95 77.7968254,16.7134921 L77.7968254,15.3055556 C77.7968254,15.0626984 77.6309524,14.8833333 77.4031746,14.8833333 L70.2730159,14.8833333 L70.2730159,14.8825397 Z M83.9380952,17.0238095 C84.6246032,17.0238095 85.131746,17.3301587 85.3753968,18.1222222 C85.6563492,19.0365079 85.6857143,20.1761905 85.6857143,21.1373016 C85.6857143,22.602381 85.6174603,25.0253968 83.9388889,25.0253968 C82.2412698,25.0253968 82.2484127,22.0253968 82.2484127,20.6301587 C82.247619,19.2388889 82.3412698,17.0238095 83.9380952,17.0238095 Z M35.7849206,21.1936508 L35.7849206,21.6730159 C35.7849206,22.5396825 35.8166667,23.268254 35.3904762,24.0388889 C35.0460317,24.665873 34.5047619,25.0539683 33.897619,25.0539683 C33.068254,25.0539683 32.5738095,24.3801587 32.5738095,23.4190476 C32.5730159,21.5246032 34.2198413,21.1936508 35.7849206,21.1936508 Z M64.1865079,21.1936508 L64.1865079,21.6730159 C64.1865079,22.5396825 64.218254,23.268254 63.7928571,24.0388889 C63.447619,24.665873 62.9103175,25.0539683 62.2992063,25.0539683 C61.468254,25.0539683 60.9746032,24.3801587 60.9746032,23.4190476 C60.9746032,21.5246032 62.6198413,21.1936508 64.1865079,21.1936508 Z M78.2460317,27.5047619 L78.2460317,29.1396825 L79.3460317,29.1396825 L79.3460317,27.5047619 L78.2460317,27.5047619 Z M46.3793651,27.7873016 L46.3793651,39.4238095 L47.3936508,39.4238095 L47.3936508,38.3809524 C47.6095238,38.7944444 47.8555556,39.1031746 48.1539683,39.3103175 C48.452381,39.518254 48.7936508,39.6206349 49.1674603,39.6206349 C49.9126984,39.6206349 50.5563492,39.2404762 51.1119048,38.465873 C51.668254,37.6904762 51.9571429,36.5674603 51.9571429,35.1412698 C51.9571429,34.2063492 51.8373016,33.431746 51.5904762,32.7753968 C51.3436508,32.1198413 51.0150794,31.631746 50.6047619,31.3095238 C50.1928571,30.9873016 49.7261905,30.802381 49.2246032,30.802381 C48.865873,30.802381 48.5309524,30.8960317 48.2373016,31.0833333 C47.9452381,31.2706349 47.7087302,31.5769841 47.4769841,31.9571429 L47.4769841,27.7873016 L46.3793651,27.7873016 Z M56.8039683,30.5198413 C56.0404762,30.5198413 55.4325397,30.7460317 55.0015873,31.1960317 C54.5706349,31.6460317 54.3547619,32.2246032 54.3547619,32.9436508 C54.3547619,33.3603175 54.4460317,33.7150794 54.6071429,34.0420635 C54.7674603,34.3698413 54.9960317,34.6357143 55.2833333,34.8309524 C55.5722222,35.0261905 56.1484127,35.2833333 57.002381,35.5634921 C57.5936508,35.7539683 57.9468254,35.915873 58.1015873,36.0428571 C58.3246032,36.2277778 58.4404762,36.4698413 58.4404762,36.8039683 C58.4404762,37.1896825 58.3055556,37.5119048 58.0452381,37.7619048 C57.7849206,38.0134921 57.4214286,38.1277778 56.9460317,38.1277778 C56.4698413,38.1277778 56.0777778,37.9944444 55.7912698,37.7055556 C55.5039683,37.4166667 55.3492063,36.9769841 55.2833333,36.381746 L54.1849206,36.6063492 C54.4333333,38.4142857 55.3349206,39.3126984 56.8896825,39.3111111 C57.7190476,39.3111111 58.3531746,39.0769841 58.8333333,38.5785714 C59.3126984,38.0801587 59.5666667,37.4111111 59.5666667,36.6063492 C59.5666667,36.1714286 59.4888889,35.7952381 59.3412698,35.4801587 C59.1920635,35.1650794 58.9880952,34.9301587 58.7206349,34.7468254 C58.4539683,34.5650794 57.8563492,34.3214286 56.9460317,34.0142857 C56.284127,33.7825397 55.897619,33.6126984 55.7634921,33.5063492 C55.5380952,33.3285714 55.4246032,33.0857143 55.4246032,32.7746032 C55.4246032,32.4571429 55.5301587,32.1880952 55.7634921,31.9849206 C55.9968254,31.7825397 56.3563492,31.6753968 56.834127,31.6753968 C57.6738095,31.6753968 58.1436508,32.1365079 58.2420635,33.0555556 L59.3134921,32.8865079 C59.2388889,32.3055556 59.1126984,31.8452381 58.9198413,31.5333333 C58.7253968,31.2222222 58.4396825,30.9587302 58.0746032,30.7730159 C57.7055556,30.5888889 57.2873016,30.5198413 56.8039683,30.5198413 Z M63.5388889,30.5198413 C62.6587302,30.5198413 61.9150794,30.8825397 61.3404762,31.6468254 C60.7666667,32.4111111 60.4968254,33.518254 60.4968254,34.9714286 C60.4968254,36.3714286 60.7730159,37.468254 61.3404762,38.2119048 C61.9103175,38.9531746 62.6468254,39.3103175 63.5674603,39.3103175 C64.2984127,39.3103175 64.9047619,39.0912698 65.3984127,38.634127 C65.8936508,38.1777778 66.2531746,37.5047619 66.4404762,36.6047619 L65.3134921,36.4079365 C64.9904762,37.5595238 64.3928571,38.1246032 63.5674603,38.1261905 C63.0404762,38.1261905 62.6103175,37.9031746 62.2428571,37.4222222 C61.8746032,36.9404762 61.6666667,36.2261905 61.6238095,35.2809524 L66.4690476,35.2809524 L66.4690476,34.8865079 C66.4690476,33.4642857 66.1857143,32.3968254 65.6238095,31.6460317 C65.0611111,30.8960317 64.3785714,30.5198413 63.5388889,30.5198413 Z M70.2166667,30.5198413 C69.9539683,30.5198413 69.7238095,30.6087302 69.5119048,30.8015873 C69.3,30.9936508 69.0619048,31.3920635 68.8071429,31.984127 L68.8071429,30.6880952 L67.8206349,30.6880952 L67.8206349,39.1126984 L68.9198413,39.1126984 L68.9198413,34.7174603 C68.9198413,34.1047619 68.9785714,33.5142857 69.1174603,32.9706349 C69.1968254,32.6579365 69.3468254,32.4126984 69.5396825,32.2380952 C69.7333333,32.0626984 69.9547619,31.984127 70.1873016,31.984127 C70.4460317,31.984127 70.7031746,32.0880952 70.9761905,32.2944444 L71.3428571,30.9706349 C70.9603175,30.6642857 70.5849206,30.5198413 70.2166667,30.5198413 Z M83.684127,30.5198413 C82.8142857,30.5198413 82.097619,30.8865079 81.5420635,31.6190476 C80.9896825,32.3515873 80.6984127,33.4515873 80.6984127,34.9150794 C80.6984127,36.368254 80.9936508,37.4690476 81.5420635,38.2119048 C82.0920635,38.9531746 82.7793651,39.3103175 83.6277778,39.3103175 C84.3293651,39.3103175 84.9309524,39.05 85.4309524,38.5214286 C85.9309524,37.9936508 86.2357143,37.2150794 86.3611111,36.2111111 L85.2896825,36.0420635 C85.2095238,36.7603175 85.0230159,37.2777778 84.7261905,37.6198413 C84.4301587,37.9611111 84.0730159,38.1269841 83.6555556,38.1269841 C83.1238095,38.1269841 82.6706349,37.8785714 82.3301587,37.3666667 C81.9912698,36.8539683 81.8238095,36.0333333 81.8238095,34.8873016 C81.8238095,33.7761905 82.0039683,32.9746032 82.3587302,32.4642857 C82.7142857,31.9531746 83.1690476,31.6753968 83.7111111,31.6753968 C84.0738095,31.6753968 84.3833333,31.815873 84.6412698,32.0968254 C84.9007937,32.3793651 85.0722222,32.8253968 85.1761905,33.3936508 L86.2484127,33.1690476 C86.1198413,32.2809524 85.8349206,31.6119048 85.3738095,31.168254 C84.9134921,30.7238095 84.3547619,30.5198413 83.684127,30.5198413 Z M89.9674603,30.5198413 C89.0865079,30.5198413 88.3436508,30.8825397 87.7690476,31.6468254 C87.1952381,32.4111111 86.9238095,33.518254 86.9238095,34.9714286 C86.9238095,36.3714286 87.2007937,37.468254 87.7690476,38.2119048 C88.3396825,38.9531746 89.0753968,39.3103175 89.9952381,39.3103175 C90.7238095,39.3103175 91.3325397,39.0912698 91.8269841,38.634127 C92.3206349,38.1777778 92.6801587,37.5047619 92.8698413,36.6047619 L91.7428571,36.4079365 C91.4174603,37.5595238 90.847619,38.1246032 90.0238095,38.1261905 C89.4968254,38.1261905 89.0388889,37.9031746 88.6714286,37.4222222 C88.3039683,36.9404762 88.0960317,36.2261905 88.0515873,35.2809524 L92.897619,35.2809524 L92.897619,34.8865079 C92.897619,33.4642857 92.6142857,32.3968254 92.052381,31.6460317 C91.4920635,30.8960317 90.8079365,30.5198413 89.9674603,30.5198413 Z M96.4769841,30.5198413 C95.7103175,30.5198413 95.1047619,30.7460317 94.6738095,31.1960317 C94.2412698,31.6452381 94.0253968,32.2246032 94.0253968,32.9436508 C94.0253968,33.3603175 94.0904762,33.7150794 94.2507937,34.0420635 C94.4095238,34.3698413 94.6388889,34.6357143 94.9277778,34.8309524 C95.2142857,35.0261905 95.7928571,35.2833333 96.6468254,35.5634921 C97.2365079,35.7539683 97.6198413,35.915873 97.7738095,36.0428571 C97.9968254,36.2277778 98.1119048,36.4698413 98.1119048,36.8039683 C98.1119048,37.1896825 97.9785714,37.5119048 97.7174603,37.7619048 C97.4587302,38.0134921 97.0944444,38.1277778 96.6190476,38.1277778 C96.1412698,38.1277778 95.7507937,37.9944444 95.4634921,37.7055556 C95.1769841,37.4166667 94.9912698,36.9769841 94.9277778,36.381746 L93.8293651,36.6063492 C94.0777778,38.4142857 94.9769841,39.3126984 96.5333333,39.3111111 C97.3642857,39.3111111 98.0261905,39.0769841 98.5055556,38.5785714 C98.9849206,38.0801587 99.2373016,37.4111111 99.2373016,36.6063492 C99.2373016,36.1714286 99.1611111,35.7952381 99.0134921,35.4801587 C98.8642857,35.1650794 98.6333333,34.9301587 98.3650794,34.7468254 C98.0984127,34.5650794 97.5285714,34.3214286 96.6190476,34.0142857 C95.9563492,33.7825397 95.5420635,33.6126984 95.4071429,33.5063492 C95.1825397,33.3285714 95.0690476,33.0857143 95.0690476,32.7746032 C95.0690476,32.4571429 95.2015873,32.1880952 95.4357143,31.9849206 C95.6690476,31.7825397 96.0309524,31.6753968 96.5071429,31.6753968 C97.3468254,31.6753968 97.815873,32.1365079 97.9150794,33.0555556 L98.9857143,32.8865079 C98.9111111,32.3055556 98.7857143,31.8452381 98.5912698,31.5333333 C98.397619,31.2222222 98.1111111,30.9587302 97.7468254,30.7730159 C97.3793651,30.5888889 96.9579365,30.5198413 96.4769841,30.5198413 Z M71.3436508,30.6888889 L73.7960317,39.1134921 L74.8380952,39.1134921 L77.2896825,30.6888889 L76.1626984,30.6888889 L74.7253968,35.8452381 C74.5515873,36.468254 74.397619,37.0071429 74.302381,37.4507937 C74.1833333,36.8912698 74.0674603,36.3031746 73.9087302,35.731746 L72.5,30.6888889 L71.3436508,30.6888889 Z M78.2460317,30.6888889 L78.2460317,39.1134921 L79.3460317,39.1134921 L79.3460317,30.6888889 L78.2460317,30.6888889 Z M42.1246032,30.802381 C41.2531746,30.802381 40.552381,31.1928571 39.984127,31.9571429 C39.4150794,32.7214286 39.1095238,33.8285714 39.1095238,35.281746 C39.1095238,36.6825397 39.3912698,37.752381 39.9547619,38.4936508 C40.5174603,39.2357143 41.2698413,39.6206349 42.181746,39.6206349 C42.9047619,39.6206349 43.4952381,39.3730159 43.984127,38.915873 C44.4730159,38.4595238 44.8111111,37.7865079 44.9992063,36.8873016 L43.9,36.718254 C43.5793651,37.8698413 42.9984127,38.4349206 42.181746,38.4365079 C41.6587302,38.4365079 41.2214286,38.2134921 40.8571429,37.731746 C40.4920635,37.2507937 40.2801587,36.5365079 40.2373016,35.5912698 L45.0269841,35.5912698 L45.0555556,35.1968254 C45.0555556,33.7746032 44.7666667,32.6793651 44.2103175,31.9277778 C43.6539683,31.1777778 42.9555556,30.802381 42.1246032,30.802381 Z M29.7563492,30.9992063 L31.7285714,39.4238095 L32.8833333,39.4238095 L34.1801587,32.9436508 L34.4055556,34.3801587 L35.447619,39.4238095 L36.5746032,39.4238095 L38.5753968,30.9992063 L37.5333333,30.9992063 L36.4333333,35.8730159 L36.0666667,37.5079365 L35.7285714,35.8730159 L34.7706349,30.9984127 L33.6436508,30.9984127 L32.6293651,35.9293651 L32.2912698,37.6761905 L31.897619,35.8730159 L30.8825397,30.9984127 L29.7563492,30.9984127 L29.7563492,30.9992063 Z M63.5103175,31.6753968 C64.0579365,31.6753968 64.5087302,31.9396825 64.8626984,32.4642857 C65.1055556,32.8230159 65.2642857,33.3690476 65.3126984,34.0984127 L61.6777778,34.0984127 C61.7126984,33.3587302 61.9214286,32.7888889 62.2706349,32.3515873 C62.6198413,31.9150794 63.0190476,31.6753968 63.5103175,31.6753968 Z M89.9388889,31.6753968 C90.4849206,31.6753968 90.9373016,31.9396825 91.2912698,32.4642857 C91.5357143,32.8230159 91.6928571,33.3690476 91.7428571,34.0984127 L88.1071429,34.0984127 C88.1420635,33.3587302 88.3515873,32.7888889 88.6992063,32.3515873 C89.0460317,31.9150794 89.447619,31.6753968 89.9388889,31.6753968 Z M42.1246032,31.9849206 C42.665873,31.9849206 43.1007937,32.25 43.45,32.7746032 C43.6912698,33.1333333 43.8507937,33.6793651 43.9,34.4087302 L40.3206349,34.4087302 C40.3547619,33.6690476 40.5388889,33.0698413 40.8849206,32.634127 C41.2293651,32.1960317 41.6373016,31.9849206 42.1246032,31.9849206 Z M49.1126984,31.9849206 C49.6007937,31.9849206 50.0174603,32.2563492 50.3531746,32.7746032 C50.6888889,33.2920635 50.8325397,34.0912698 50.8325397,35.197619 C50.8325397,36.2746032 50.6738095,37.0785714 50.3246032,37.6206349 C49.9761905,38.1634921 49.5626984,38.4373016 49.1134921,38.4373016 C48.7833333,38.4373016 48.4833333,38.3261905 48.2119048,38.0992063 C47.9388889,37.8722222 47.7396825,37.5468254 47.5912698,37.1134921 C47.4436508,36.6801587 47.3666667,36.0126984 47.3666667,35.1412698 C47.3666667,34.1142857 47.55,33.3452381 47.9015873,32.802381 C48.2531746,32.2595238 48.6634921,31.9849206 49.1126984,31.9849206 Z M13.9634921,23.0539683 L9.76507937,24.8563492 L13.6531746,26.5190476 L18.1619048,24.8563492 L13.9634921,23.0539683 Z M7.65238095,25.3071429 L7.51111111,33.4230159 L13.6539683,36.1277778 L13.6539683,27.702381 L7.65238095,25.3071429 Z M20.2746032,25.3071429 L14.7238095,27.4206349 L14.7238095,35.3666667 L20.2746032,33.1126984 L20.2746032,25.3071429 Z M26.8960317,0.0619047619 L22.6690476,1.86428571 L26.5857143,3.52698413 L31.0944444,1.86428571 L26.8960317,0.0619047619 Z M21.0349206,2.45714286 L21.0349206,10.5714286 L26.2761905,12.0928571 L26.4452381,4.71031746 L21.0349206,2.45714286 Z M32.7563492,2.90714286 L27.7968254,5.02063492 L27.7968254,12.9944444 L32.7563492,10.7404762 L32.7563492,2.90714286 Z M7.0452381,11.4825397 L2.8468254,13.2857143 L6.73492063,14.9484127 L11.2428571,13.2857143 L7.0452381,11.4825397 Z M0.734920635,13.7373016 L0.593650794,21.8515873 L6.73571429,24.5563492 L6.73571429,16.131746 L0.734920635,13.7373016 Z M13.3571429,13.7373016 L7.80634921,15.85 L7.80634921,23.7960317 L13.3571429,21.5420635 L13.3571429,13.7373016 Z M20.5698413,11.1833333 L16.3714286,12.9857143 L20.2595238,14.647619 L24.7674603,12.9857143 L20.5698413,11.1833333 Z M14.2587302,13.4365079 L14.118254,21.5515873 L20.2603175,24.2563492 L20.2603175,15.831746 L14.2587302,13.4365079 Z M26.881746,13.4365079 L21.3309524,15.55 L21.3309524,23.4960317 L26.881746,21.2412698 L26.881746,13.4365079 Z M40.1055556,0.0619047619 L35.9079365,1.86428571 L39.7960317,3.52698413 L44.3047619,1.86428571 L40.1055556,0.0619047619 Z M33.7944444,2.31587302 L33.6531746,10.4309524 L39.7960317,13.1349206 L39.7960317,4.71111111 L33.7944444,2.31587302 Z M46.4166667,2.31587302 L40.865873,4.42936508 L40.865873,12.3746032 L46.4166667,10.1206349 L46.4166667,2.31587302 Z" id="Shape"></path>
            </g>
        </g>
    </g>
</svg>