<?xml version="1.0" encoding="UTF-8"?>
<svg width="57px" height="50px" viewBox="0 0 57 50" version="1.1" xmlns="http://www.w3.org/2000/svg" xmlns:xlink="http://www.w3.org/1999/xlink">
    <!-- Generator: Sketch 52.2 (67145) - http://www.bohemiancoding.com/sketch -->
    <title>docker-plain-wordmark</title>
    <desc>Created with Sketch.</desc>
    <g id="Page-1" stroke="none" stroke-width="1" fill="none" fill-rule="evenodd">
        <g id="Letter" transform="translate(-536.000000, -592.000000)" fill="#C2D0D9" fill-rule="nonzero">
            <g id="docker-plain-wordmark" transform="translate(536.747126, 592.000000)">
                <path d="M37.2807018,48.8596491 C37.2807018,48.7280702 37.3245614,48.5964912 37.2807018,48.4649123 C37.1929825,48.3333333 37.1491228,48.245614 37.0614035,48.1578947 C36.8421053,47.8947368 36.622807,47.6754386 36.3596491,47.4122807 L33.7719298,44.7807018 L35.7894737,42.7192982 L36.8859649,41.5350877 C37.0614035,41.3596491 37.2807018,41.0087719 37.2807018,40.745614 L37.2807018,40.5701754 C37.2807018,40.1754386 37.1052632,39.9561404 36.7105263,39.8684211 L36.7982456,39.9122807 L36.4912281,39.9122807 C36.2280702,39.9122807 35.4824561,40.6140351 35.3070175,40.8333333 C34.6491228,41.4912281 34.2105263,42.1052632 33.3333333,42.7631579 L33.3333333,37.5438596 C33.3333333,37.0614035 33.0701754,36.8421053 32.5877193,36.8421053 L32.4561404,36.8421053 C31.9736842,36.8421053 31.5789474,37.0614035 31.5789474,37.5438596 L31.5789474,48.9035088 C31.5789474,49.3859649 31.9736842,49.5614035 32.4561404,49.5614035 L32.5877193,49.5614035 C33.0701754,49.5614035 33.3333333,49.3421053 33.3333333,48.9035088 L33.3333333,46.8859649 L34.6491228,48.1578947 C35.0438596,48.5526316 35.4385965,48.8157895 35.7894737,49.1666667 C35.9649123,49.3421053 36.3157895,49.5614035 36.5789474,49.5614035 L36.7105263,49.5614035 C37.1491228,49.5614035 37.2807018,49.3421053 37.3684211,48.9912281 L37.2807018,49.0350877 L37.2807018,48.8596491 Z M54.4298246,39.9122807 L54.254386,39.9122807 C53.2894737,39.9122807 52.4122807,40.1754386 51.622807,40.745614 C50.3070175,41.7105263 49.5614035,42.9824561 49.5614035,44.6491228 L49.5614035,48.9473684 C49.5614035,49.4298246 49.7368421,49.5614035 50.2192982,49.5614035 L50.3508772,49.5614035 C50.8333333,49.5614035 51.3157895,49.3859649 51.3157895,48.9473684 L51.3157895,44.9122807 C51.3157895,44.0350877 51.4912281,43.2017544 52.1491228,42.5438596 C52.6754386,42.0175439 53.3333333,41.5789474 54.0789474,41.5789474 C54.6491228,41.5789474 55.3070175,41.4473684 55.3070175,40.745614 C55.3070175,40.2192982 54.9122807,39.9122807 54.4298246,39.9122807 Z M47.6754386,42.1052632 C47.1929825,41.3157895 46.5350877,40.7017544 45.7017544,40.3070175 C44.1666667,39.5614035 42.5438596,39.4736842 41.0526316,40.3508772 L40.8333333,40.4824561 C40.2192982,40.8333333 39.6929825,41.2719298 39.2982456,41.8421053 C38.1578947,43.5087719 38.0263158,45.3947368 39.0350877,47.1491228 L39.122807,47.3245614 C39.5614035,48.0701754 40.1315789,48.6842105 40.877193,49.0789474 C42.4561404,49.9561404 44.1666667,50.0438596 45.745614,49.1666667 L45.877193,49.0789474 C46.3157895,48.8157895 46.4035088,48.377193 46.1842105,47.9385965 C46.0964912,47.7631579 45.9210526,47.6315789 45.745614,47.5438596 L45.6578947,47.5438596 C45.3508772,47.5 44.5175439,47.8508772 44.2105263,47.9824561 C43.5964912,48.0701754 42.8947368,48.1140351 42.2807018,47.8947368 L45.6140351,45 C46.0964912,44.5614035 46.622807,44.0789474 47.1491228,43.6842105 C47.5877193,43.3333333 48.0263158,42.8508772 47.6754386,42.2368421 L47.6754386,42.1052632 Z M44.6491228,43.6842105 L40.9210526,46.8859649 C40.7894737,46.754386 40.7017544,46.5789474 40.6140351,46.4473684 C40.3508772,46.0087719 40.1754386,45.4824561 40.1754386,44.9561404 C40.1315789,43.6403509 40.6140351,42.5438596 41.7982456,41.8859649 C42.6754386,41.3596491 43.6403509,41.2719298 44.6052632,41.622807 C45.0877193,41.7982456 45.6578947,42.1052632 45.9649123,42.5438596 C45.5263158,42.9385965 45.0438596,43.2894737 44.6491228,43.6842105 Z M9.21052632,36.8421053 L9.07894737,36.8421053 C8.59649123,36.8421053 8.33333333,37.0175439 8.33333333,37.5 L8.33333333,41.0526316 C7.45614035,40.2631579 6.40350877,39.9561404 5.1754386,39.9561404 L4.8245614,39.9561404 C3.99122807,39.9561404 3.20175439,40.0877193 2.45614035,40.5263158 C0.877192982,41.4473684 0,42.8070175 0,44.6491228 L0,45 C0,45.8333333 0.219298246,46.5350877 0.657894737,47.2807018 C1.57894737,48.8596491 3.02631579,49.6491228 4.8245614,49.6491228 L5.1754386,49.6491228 C6.00877193,49.6491228 6.88596491,49.5175439 7.5877193,49.122807 C9.16666667,48.2017544 10.0877193,46.8421053 10.0877193,45.0438596 L10.0877193,37.5877193 C10.0877193,37.0175439 9.69298246,36.8421053 9.21052632,36.8421053 Z M7.85087719,46.4035088 C7.19298246,47.5 6.22807018,48.1140351 4.95614035,48.1140351 C4.42982456,48.1140351 3.90350877,47.9824561 3.46491228,47.7192982 C2.3245614,47.1052632 1.66666667,46.0964912 1.66666667,44.7807018 C1.66666667,44.2982456 1.75438596,43.8596491 1.97368421,43.4210526 C2.5877193,42.1491228 3.59649123,41.4473684 5,41.4473684 C5.70175439,41.4473684 6.31578947,41.6666667 6.84210526,42.0614035 C7.76315789,42.7192982 8.28947368,43.5964912 8.28947368,44.7368421 C8.33333333,45.3508772 8.15789474,45.877193 7.85087719,46.4035088 Z M16.0526316,39.9122807 L15.7894737,39.9122807 C14.9561404,39.9122807 14.122807,40.0438596 13.4210526,40.4824561 C11.8421053,41.4035088 10.9649123,42.7631579 10.9649123,44.6052632 L10.9649123,44.9561404 C10.9649123,45.7894737 11.1842105,46.4912281 11.622807,47.2368421 C12.5438596,48.8157895 13.9912281,49.6052632 15.8333333,49.6052632 L16.1842105,49.6052632 C17.0175439,49.6052632 17.8508772,49.4736842 18.5964912,49.0789474 C20.1754386,48.1578947 21.0964912,46.7982456 21.0964912,45 L21.0964912,44.6491228 C21.0964912,43.8596491 20.8333333,43.2017544 20.4824561,42.5438596 C19.5175439,40.7894737 17.9824561,39.9122807 16.0526316,39.9122807 Z M18.8596491,46.4035088 C18.2017544,47.4561404 17.2807018,48.1140351 16.0087719,48.1140351 C15.4385965,48.1140351 14.8684211,47.9824561 14.3421053,47.6754386 C13.245614,47.0175439 12.6315789,46.0964912 12.6315789,44.8245614 C12.6315789,44.3421053 12.7192982,43.9035088 12.9385965,43.4649123 C13.5526316,42.1929825 14.5614035,41.4912281 15.9649123,41.4912281 C16.622807,41.4912281 17.1929825,41.6666667 17.7192982,42.0175439 C18.6842105,42.6754386 19.254386,43.5964912 19.254386,44.7807018 C19.2982456,45.3070175 19.1666667,45.877193 18.8596491,46.4035088 Z M29.6052632,40.5263158 L29.5614035,40.5701754 C28.8157895,40.0877193 27.9824561,39.9122807 27.1052632,39.9122807 L26.754386,39.9122807 C25.9210526,39.9122807 25.0877193,40.0438596 24.3859649,40.4824561 C22.8070175,41.4035088 21.9298246,42.7631579 21.9298246,44.5614035 L21.9298246,44.9122807 C21.9298246,45.3508772 22.0175439,45.745614 22.1052632,46.1842105 C22.8070175,48.5964912 24.6929825,49.9561404 27.2368421,49.7807018 C27.9385965,49.7368421 29.8245614,49.5175439 29.8245614,48.4649123 L29.8245614,48.2894737 C29.8245614,47.8947368 29.5175439,47.5438596 29.1666667,47.4561404 L29.122807,47.3684211 L28.8157895,47.3684211 L28.7280702,47.5 C28.3333333,47.6754386 27.6754386,48.0263158 27.2368421,48.0263158 C26.7105263,48.0263158 26.1403509,48.0263158 25.6578947,47.7631579 C24.3859649,47.1491228 23.6403509,46.1403509 23.6403509,44.7368421 C23.6403509,44.254386 23.7280702,43.8157895 23.9473684,43.377193 C24.5614035,42.1491228 25.5701754,41.3596491 26.9736842,41.4035088 C27.2368421,41.4035088 27.7192982,41.5350877 27.9824561,41.6666667 C28.2017544,41.754386 28.7719298,42.1052632 29.0350877,42.1052632 L29.122807,42.1052632 L29.1666667,42.0175439 C29.5614035,41.9298246 29.8684211,41.622807 29.8684211,41.2280702 L29.8684211,41.0526316 C29.8684211,40.877193 29.7807018,40.745614 29.6929825,40.6140351 L29.6052632,40.5263158 Z M2.10526316,26.8421053 L2.14912281,26.9298246 C5.61403509,32.8070175 11.6666667,35.2631579 18.2894737,35.2631579 C31.0964912,35.2631579 41.6666667,29.5175439 46.4912281,17.4561404 C49.7368421,17.6315789 53.0701754,16.6666667 54.6491228,13.5526316 L55.0438596,12.7631579 L54.254386,12.3245614 C52.3684211,11.2280702 49.8684211,11.0964912 47.7631579,11.7105263 C47.5,9.42982456 46.0087719,7.45614035 44.254386,6.05263158 L43.5526316,5.48245614 L42.9824561,6.18421053 C41.7982456,7.54385965 41.4473684,9.8245614 41.622807,11.5789474 C41.754386,12.8508772 42.1491228,14.1666667 42.9385965,15.2192982 C42.3245614,15.5701754 41.6666667,16.0526316 41.0526316,16.2719298 C39.8245614,16.7105263 38.4649123,17.1491228 37.1491228,17.1491228 L34.2105263,17.1491228 L34.2105263,10.9649123 L28.5087719,10.9649123 L28.5087719,1.42108547e-14 L21.9298246,1.42108547e-14 L21.9298246,5.26315789 L10.9649123,5.26315789 L10.9649123,10.9649123 L5.26315789,10.9649123 L5.26315789,17.1052632 L0.350877193,17.1052632 L0.263157895,17.7631579 C0.0438596491,20.5701754 0.394736842,23.2894737 1.57894737,25.877193 L2.10526316,26.8421053 Z M28.5087719,12.2807018 L33.3333333,12.2807018 L33.3333333,17.1052632 L28.5087719,17.1052632 L28.5087719,12.2807018 Z M22.8070175,0.877192982 L27.6315789,0.877192982 L27.6315789,5.70175439 L22.8070175,5.70175439 L22.8070175,0.877192982 Z M22.8070175,6.57894737 L27.6315789,6.57894737 L27.6315789,11.4035088 L22.8070175,11.4035088 L22.8070175,6.57894737 Z M22.8070175,12.2807018 L27.6315789,12.2807018 L27.6315789,17.1052632 L22.8070175,17.1052632 L22.8070175,12.2807018 Z M17.1052632,6.57894737 L21.9298246,6.57894737 L21.9298246,11.4035088 L17.1052632,11.4035088 L17.1052632,6.57894737 Z M17.1052632,12.2807018 L21.9298246,12.2807018 L21.9298246,17.1052632 L17.1052632,17.1052632 L17.1052632,12.2807018 Z M17.5877193,25.9649123 C17.5877193,26.7105263 16.9736842,27.3245614 16.2280702,27.3245614 C15.4824561,27.3245614 14.8684211,26.7105263 14.8684211,25.9649123 C14.8684211,25.2192982 15.4824561,24.6052632 16.2280702,24.6052632 C16.9736842,24.6491228 17.5877193,25.2192982 17.5877193,25.9649123 Z M11.8421053,6.57894737 L16.2280702,6.57894737 L16.2280702,11.4035088 L11.8421053,11.4035088 L11.8421053,6.57894737 Z M11.8421053,12.2807018 L16.2280702,12.2807018 L16.2280702,17.1052632 L11.8421053,17.1052632 L11.8421053,12.2807018 Z M6.14035088,12.2807018 L10.9649123,12.2807018 L10.9649123,17.1052632 L6.14035088,17.1052632 L6.14035088,12.2807018 Z M7.19298246,28.9473684 C7.89473684,28.9473684 8.59649123,28.9473684 9.25438596,28.9035088 C10.9649123,28.8157895 12.4561404,28.5964912 13.6842105,28.245614 C14.6929825,30.5701754 16.5350877,32.7192982 19.8245614,34.2982456 L18.2894737,34.3421053 C11.3596491,34.2982456 7.63157895,31.9736842 4.56140351,28.9035088 C5.48245614,28.9473684 6.35964912,28.9473684 7.19298246,28.9473684 Z M16.2280702,26.9298246 C16.754386,26.9298246 17.1929825,26.4912281 17.1929825,25.9649123 C17.1929825,25.8333333 17.1491228,25.7017544 17.1052632,25.6140351 C17.0175439,25.745614 16.9298246,25.8333333 16.754386,25.8333333 C16.5350877,25.8333333 16.3596491,25.6578947 16.3596491,25.4385965 C16.3596491,25.3070175 16.4473684,25.1754386 16.5350877,25.0877193 C16.4912281,25.0438596 16.3596491,25 16.2280702,25 C15.7017544,25 15.2631579,25.4385965 15.2631579,25.9649123 C15.3070175,26.4912281 15.7017544,26.9298246 16.2280702,26.9298246 Z" id="Shape"></path>
            </g>
        </g>
    </g>
</svg>