<?xml version="1.0" encoding="UTF-8"?>
<svg width="46px" height="49px" viewBox="0 0 46 49" version="1.1" xmlns="http://www.w3.org/2000/svg" xmlns:xlink="http://www.w3.org/1999/xlink">
    <!-- Generator: Sketch 52.2 (67145) - http://www.bohemiancoding.com/sketch -->
    <title>electron-original</title>
    <desc>Created with Sketch.</desc>
    <g id="Page-1" stroke="none" stroke-width="1" fill="none" fill-rule="evenodd">
        <g id="Letter" transform="translate(-137.000000, -348.000000)" fill="#C2D0D9">
            <g id="electron-original" transform="translate(137.000000, 348.000000)">
                <path d="M16.073975,10.543672 C9.67023173,9.37611408 4.61229947,10.597148 2.59358289,14.1087344 C1.08734403,16.7156863 1.51960784,20.1737968 3.63636364,23.8680927 C3.81725904,24.1831214 4.21928499,24.291858 4.53431373,24.1109626 C4.84934246,23.9300672 4.95807901,23.5280412 4.7771836,23.2130125 C2.86987522,19.8841355 2.49554367,16.8983957 3.72994652,14.7459893 C5.40552585,11.8449198 9.9197861,10.7352941 15.8377897,11.8315508 C16.1946581,11.8967716 16.5368291,11.6603444 16.6020499,11.3034759 C16.6672707,10.9466074 16.4308435,10.6044365 16.073975,10.5392157 L16.073975,10.543672 Z M6.96524064,28.3467023 C9.82057538,31.406759 13.1266972,34.0125842 16.7691622,36.073975 C26.0561497,41.4215686 35.9313725,42.8698752 40.8333333,39.5454545 C41.1323645,39.3411781 41.2091783,38.9331667 41.0049019,38.6341355 C40.8006255,38.3351044 40.3926141,38.2582905 40.0935829,38.4625668 C35.6996435,41.4438503 26.2923351,40.0713012 17.4108734,34.9331551 C13.891189,32.9383081 10.6963935,30.4182366 7.93672014,27.459893 C7.69060394,27.1916264 7.27361425,27.1736699 7.0053476,27.4197861 C6.73708095,27.6659023 6.71912445,28.082892 6.96524064,28.3511586 L6.96524064,28.3467023 Z" id="Shape" fill-rule="nonzero"></path>
                <path d="M39.2424242,27.5445633 C43.4358289,22.5935829 44.8975045,17.6114082 42.8832442,14.1265597 C41.4037433,11.5597148 38.2709447,10.2049911 34.1087344,10.1515152 C33.745713,10.1515152 33.451426,10.4458021 33.451426,10.8088235 C33.451426,11.1718449 33.745713,11.4661319 34.1087344,11.4661319 C37.8520499,11.5151515 40.5481283,12.6827094 41.7647059,14.7860963 C43.4358289,17.6827094 42.1301248,22.1256684 38.2575758,26.7023173 C38.106327,26.8814277 38.0621216,27.1276228 38.1416113,27.3481634 C38.2211011,27.5687039 38.4122097,27.7300844 38.6429482,27.7715145 C38.8736868,27.8129446 39.1090008,27.72813 39.2602496,27.5490196 L39.2424242,27.5445633 Z M28.4714795,10.7620321 C24.3569476,11.6957723 20.4112028,13.2590388 16.7736185,15.3966132 C7.18805704,20.9447415 0.931372549,29.0953654 1.78253119,35.013369 C1.83544619,35.3825433 2.17761715,35.6389221 2.54679144,35.5860071 C2.91596573,35.5330921 3.17234456,35.1909212 3.11942959,34.8217469 C2.33065954,29.5677362 8.25757576,21.8360071 17.4286988,16.5374332 C20.9473998,14.4621245 24.7653849,12.9424462 28.7477718,12.0320856 C28.9770332,11.9827307 29.1625489,11.8148154 29.234437,11.5915919 C29.3063251,11.3683683 29.2536641,11.1237493 29.0962908,10.9498806 C28.9389176,10.7760119 28.7007408,10.6993082 28.4714795,10.7486631 L28.4714795,10.7620321 Z" id="Shape" fill-rule="nonzero"></path>
                <path d="M12.9233512,39.1176471 C15.1515152,45.2361854 18.7165775,49.0196078 22.7495544,49.0196078 C25.6907308,49.0196078 28.4090909,47.0142602 30.530303,43.4848485 C30.7247348,43.1759727 30.6319596,42.7679612 30.3230838,42.5735294 C30.0142079,42.3790976 29.6061965,42.4718728 29.4117647,42.7807487 C27.5044563,45.9536542 25.1648841,47.6827094 22.7540107,47.6827094 C19.402852,47.6827094 16.2076649,44.3226381 14.1800357,38.6631016 C14.0569776,38.3222307 13.6808888,38.1456585 13.3400178,38.2687166 C12.9991469,38.3917747 12.8225747,38.7678635 12.9456328,39.1087344 L12.9233512,39.1176471 Z M32.9768271,37.9188948 C34.1622997,33.9734896 34.7496341,29.8726636 34.7192513,25.7531194 C34.7192513,14.8752228 30.9135472,5.50356506 25.4901961,3.09269162 C25.1579392,2.94502192 24.7688819,3.09465937 24.6212121,3.42691623 C24.4735424,3.75917309 24.6231799,4.14823045 24.9554367,4.29590018 C29.7905526,6.44385027 33.4224599,15.3386809 33.4224599,25.7531194 C33.452089,29.73976 32.88429,33.7083448 31.7379679,37.526738 C31.6296768,37.8725312 31.8222103,38.2406393 32.1680036,38.3489304 C32.5137968,38.4572216 32.8819049,38.2646881 32.9901961,37.9188948 L32.9768271,37.9188948 Z" id="Shape" fill-rule="nonzero"></path>
                <path d="M45.3253119,37.2771836 C45.3253119,35.5420644 43.9187199,34.1354724 42.1836007,34.1354724 C40.4484815,34.1354724 39.0418895,35.5420644 39.0418895,37.2771836 C39.0418895,39.0123028 40.4484815,40.4188948 42.1836007,40.4188948 C43.0168343,40.4188948 43.8159409,40.0878941 44.405126,39.4987089 C44.9943112,38.9095238 45.3253119,38.1104172 45.3253119,37.2771836 Z M44.0106952,37.2771836 C44.0106952,38.0161743 43.5655379,38.6823993 42.8827995,38.9651988 C42.2000611,39.2479983 41.4141952,39.0916799 40.8916498,38.5691345 C40.3691045,38.0465891 40.212786,37.2607232 40.4955855,36.5779848 C40.778385,35.8952464 41.44461,35.4500891 42.1836007,35.4500891 C43.1926771,35.4500891 44.0106952,36.2681072 44.0106952,37.2771836 Z" id="Shape" fill-rule="nonzero"></path>
                <path d="M3.27094474,40.4188948 C5.00606394,40.4188948 6.41265597,39.0123028 6.41265597,37.2771836 C6.41265597,35.5420644 5.00606394,34.1354724 3.27094474,34.1354724 C1.53582554,34.1354724 0.129233512,35.5420644 0.129233512,37.2771836 C0.129233512,39.0123028 1.53582554,40.4188948 3.27094474,40.4188948 Z M3.27094474,39.1042781 C2.53195401,39.1042781 1.86572906,38.6591208 1.58292955,37.9763824 C1.30013004,37.293644 1.45644849,36.5077781 1.97899385,35.9852327 C2.50153921,35.4626873 3.28740511,35.3063689 3.97014353,35.5891684 C4.65288194,35.8719679 5.09803922,36.5381929 5.09803922,37.2771836 C5.09803922,38.28626 4.28002116,39.1042781 3.27094474,39.1042781 Z" id="Shape" fill-rule="nonzero"></path>
                <path d="M22.7495544,6.29679144 C24.4846736,6.29679144 25.8912656,4.89019941 25.8912656,3.15508021 C25.8912656,1.41996101 24.4846736,0.013368984 22.7495544,0.013368984 C21.0144352,0.013368984 19.6078431,1.41996101 19.6078431,3.15508021 C19.6078431,4.89019941 21.0144352,6.29679144 22.7495544,6.29679144 Z M22.7495544,4.98217469 C22.0105636,4.98217469 21.3443387,4.53701741 21.0615392,3.854279 C20.7787397,3.17154059 20.9350581,2.38567468 21.4576035,1.86312932 C21.9801488,1.34058396 22.7660147,1.18426552 23.4487532,1.46706503 C24.1314916,1.74986454 24.5766488,2.41608948 24.5766488,3.15508021 C24.5766488,4.16415663 23.7586308,4.98217469 22.7495544,4.98217469 Z" id="Shape" fill-rule="nonzero"></path>
                <path d="M23.2308378,27.9723708 C22.3325496,28.1733774 21.4017225,27.8126903 20.8734134,27.05889 C20.3451043,26.3050898 20.323656,25.3070546 20.8190933,24.5312536 C21.3145306,23.7554525 22.2290028,23.3551091 23.1350971,23.5173387 C24.0411915,23.6795684 24.759951,24.3723302 24.9554367,25.271836 C25.220843,26.4930737 24.4504224,27.6994688 23.2308378,27.9723708 Z" id="Path"></path>
            </g>
        </g>
    </g>
</svg>