<?xml version="1.0" encoding="UTF-8"?>
<svg width="270px" height="374px" viewBox="0 0 270 374" version="1.1" xmlns="http://www.w3.org/2000/svg" xmlns:xlink="http://www.w3.org/1999/xlink">
    <!-- Generator: Sketch 51.2 (57519) - http://www.bohemiancoding.com/sketch -->
    <title>Flame</title>
    <desc>Created with Sketch.</desc>
    <defs></defs>
    <g id="Page-1" stroke="none" stroke-width="1" fill="none" fill-rule="evenodd">
        <g id="Catatek" transform="translate(-903.000000, -205.000000)">
            <g id="Flame" transform="translate(903.000000, 205.000000)">
                <path d="M10.4810801,246.857612 C3.18147658,319.283333 81.1696699,363.964668 94.0159436,367 C94.0159436,367 57.3795326,326.966366 60.8241853,292.788586 C63.2095558,269.121631 73.5175815,260.554259 92.9744071,234.653061 C106.958446,216.03732 122.750402,190.492506 134.359889,152.764586 C175.674852,186.944515 193.391891,206.832554 201.646118,248.104283 C209.900438,289.376057 174.810847,363.167165 174.810847,363.167165 C298.096228,275.354927 267.51668,141.72438 104.917922,34 C84.0252954,173.483794 17.7480563,174.755239 10.4810801,246.857612 Z" id="path4355" fill="#C93F50" opacity="0.751004464"></path>
                <path d="M26.4533854,261.792836 C20.0738777,325.349905 82.9411994,364.336349 94.1682343,367 C94.1682343,367 67.440412,332.092137 70.4508753,302.099484 C72.5355762,281.330589 81.5443025,273.812305 98.5486466,251.082753 C110.770035,234.746541 124.571456,212.329733 134.717598,179.221661 C170.824919,209.2162 186.308772,226.668914 193.522576,262.88685 C200.73646,299.104826 175.030473,362.729367 175.030473,362.729367 C282.776057,285.669887 251.090327,169.533347 108.986713,75 C90.7275468,197.403767 32.8043785,198.519521 26.4533854,261.792836 Z" id="path4355" fill="#754D63"></path>
                <path d="M40.383796,288.006269 C34.9834685,341.768584 88.5299232,365.8878 98.0337388,368.140956 C98.0337388,368.140956 75.0797906,347.471773 77.6281828,322.101276 C79.3929063,304.533066 87.0188979,298.173423 101.413273,278.946713 C111.75882,265.128067 123.441884,246.165905 132.030711,218.160103 C162.595978,243.532196 175.70324,258.29528 181.809808,288.931685 C187.916445,319.568123 170.180503,366.576754 170.180503,366.576754 C261.388393,301.392879 230.541579,209.964852 110.249217,130 C94.792621,233.540173 45.7599856,234.483978 40.383796,288.006269 Z" id="path4355-copy" fill="#754D63"></path>
                <path d="M57.3142067,308.219702 C52.8930594,352.187263 109.214671,369.336259 116.995267,371.178922 C116.995267,371.178922 85.7191692,356.85141 87.8054903,336.103068 C89.2502365,321.735544 95.4934933,316.53454 107.277899,300.810672 C115.747605,289.509594 125.312311,274.002076 132.343823,251.098546 C157.367037,271.848193 168.097707,283.921646 173.097041,308.976519 C178.09643,334.031421 148.703983,371.178922 148.703983,371.178922 C223.374178,317.870651 212.992831,244.396357 114.511722,179 C101.857695,263.676578 61.7155926,264.448436 57.3142067,308.219702 Z" id="path4355-copy-2" fill="#C93F50"></path>
                <path d="M69.2678137,327.028657 C65.4994533,364.466382 119.858797,370.780124 126.490581,372.349124 C126.490581,372.349124 93.478755,368.437834 95.2570287,350.770929 C96.4884566,338.537196 101.80989,334.108618 111.854317,320.719978 C119.073462,311.097278 127.22593,297.892857 133.219232,278.390841 C154.547743,296.058857 163.694019,306.339224 167.955196,327.673076 C172.216421,349.006952 138.612558,370.959509 138.612558,370.959509 C202.257624,325.568308 201.960333,272.684026 118.020058,217 C107.234411,289.100849 73.0193306,289.758074 69.2678137,327.028657 Z" id="path4355-copy-3" fill="#C93F50"></path>
                <path d="M0.494168264,224.757253 C-7.23136725,301.231878 77.979998,361.79498 91.5758522,365 C91.5758522,365 50.1291465,309.344425 53.7747948,273.255963 C56.2993517,248.265925 67.2088509,239.2196 87.8009827,211.870416 C102.600991,192.213976 119.314408,165.241099 131.601308,125.404028 C175.327,161.494761 183.77614,176.258543 214.259428,224.757253 C244.742715,273.255963 198.224509,340.512148 198.224509,340.512148 C328.703594,247.790835 272.527801,113.746629 100.441402,0 C78.3296901,147.281528 8.18517274,148.624052 0.494168264,224.757253 Z" id="path4355" fill="#754D63" opacity="0.712444196"></path>
                <path d="M129,373.713114 C158.271092,373.713114 182,367.793939 182,333 C182,298.206061 158.271092,270 129,270 C99.7289083,270 76,298.206061 76,333 C76,367.793939 99.7289083,373.713114 129,373.713114 Z" id="Oval" fill="#C93F50" fill-rule="nonzero"></path>
            </g>
        </g>
    </g>
</svg>