<?xml version="1.0" encoding="UTF-8"?>
<svg width="25px" height="34px" viewBox="0 0 25 34" version="1.1" xmlns="http://www.w3.org/2000/svg" xmlns:xlink="http://www.w3.org/1999/xlink">
    <!-- Generator: Sketch 51.3 (57544) - http://www.bohemiancoding.com/sketch -->
    <title>Flame</title>
    <desc>Created with Sketch.</desc>
    <defs></defs>
    <g id="Page-1" stroke="none" stroke-width="1" fill="none" fill-rule="evenodd">
        <g id="Logo" transform="translate(-547.000000, -184.000000)">
            <g id="Group-2" transform="translate(541.000000, 184.000000)">
                <g id="Flame" transform="translate(6.000000, 0.000000)">
                    <path d="M2.04075192,25.8155735 C1.55541468,30.7263367 5.79273398,32.7865898 8.80238342,33.7309723 C9.92489467,34.0831994 9.22918103,33.8888768 9.54774475,33.9656372 C9.54774475,33.9656372 10.0073369,34.060671 8.87132263,33.4998474 C7.48678622,32.8163343 6.46366116,31.8391435 6.63638808,30.0914299 C6.85413975,27.8881999 7.79512135,27.0906367 9.5712631,24.6794141 C10.8478144,22.9464172 12.2894037,20.5683714 13.3491909,17.0561626 C17.1206813,20.238078 18.7380044,22.089517 19.4915023,25.9316299 C20.2450086,29.7737471 16.4317559,33.6568675 16.4317559,33.6568675 C27.686023,25.4821547 25.5045826,16.0283958 10.6615424,6 C8.75433174,18.9849778 2.70412735,19.1033405 2.04075192,25.8155735 Z" id="path4355" fill="#C93F50" opacity="0.751004464"></path>
                    <path d="M0.0422803286,20.936292 C-0.673047034,28.0599558 7.90804821,33.5572261 9.16692359,33.855776 C9.16692359,33.855776 4.63811165,28.8156451 4.97567167,25.4539801 C5.20942695,23.126141 6.21956576,22.2834696 8.12624463,19.7358744 C9.49661575,17.9048636 11.0441544,15.3923216 12.1818303,11.6814711 C16.2305055,15.0433476 17.0128333,16.418604 19.8353599,20.936292 C22.6578865,25.4539801 18.3506452,31.7189398 18.3506452,31.7189398 C30.432042,23.081886 25.2305797,10.5955764 9.29665379,0 C7.24927309,13.7193752 0.754410373,13.8444322 0.0422803286,20.936292 Z" id="path4355" fill="#754D63" opacity="0.712444196"></path>
                </g>
            </g>
        </g>
    </g>
</svg>