<?xml version="1.0" encoding="UTF-8"?>
<svg width="50px" height="40px" viewBox="0 0 50 40" version="1.1" xmlns="http://www.w3.org/2000/svg" xmlns:xlink="http://www.w3.org/1999/xlink">
    <!-- Generator: Sketch 51.3 (57544) - http://www.bohemiancoding.com/sketch -->
    <title>github-alt-brands</title>
    <desc>Created with Sketch.</desc>
    <defs></defs>
    <g id="Page-1" stroke="none" stroke-width="1" fill="none" fill-rule="evenodd">
        <g id="Catatek" transform="translate(-161.000000, -5202.000000)" fill="#47566E" fill-rule="nonzero">
            <g id="Group-5" transform="translate(74.000000, 5202.000000)">
                <g id="github-alt-brands" transform="translate(87.000000, 0.000000)">
                    <path d="M19.133658,27.2148268 C19.133658,29.3636364 18.012987,32.8798701 15.3603896,32.8798701 C12.7077922,32.8798701 11.5871212,29.3636364 11.5871212,27.2148268 C11.5871212,25.0660173 12.7077922,21.5497835 15.3603896,21.5497835 C18.012987,21.5497835 19.133658,25.0660173 19.133658,27.2148268 Z M49.3506494,22.0227273 C49.3506494,25.3024892 49.021645,28.7775974 47.5514069,31.7900433 C43.6547619,39.6655844 32.9415584,39.4805195 25.271645,39.4805195 C17.478355,39.4805195 6.12770563,39.7581169 2.07683983,31.7900433 C0.575757576,28.8084416 1.77635684e-14,25.3024892 1.77635684e-14,22.0227273 C1.77635684e-14,17.7148268 1.42911255,13.6433983 4.26677489,10.3430736 C3.73214286,8.71861472 3.47510823,7.01190476 3.47510823,5.32575758 C3.47510823,3.11525974 3.9788961,2.00487013 4.97619048,0 C9.63365801,0 12.6152597,0.925324675 16.1623377,3.7012987 C19.1439394,2.99188312 22.2077922,2.67316017 25.2819264,2.67316017 C28.0579004,2.67316017 30.8544372,2.97132035 33.5481602,3.61904762 C37.0438312,0.873917749 40.0254329,0 44.6314935,0 C45.6390693,2.00487013 46.1325758,3.11525974 46.1325758,5.32575758 C46.1325758,7.01190476 45.8652597,8.68777056 45.3409091,10.2813853 C48.16829,13.6125541 49.3506494,17.7148268 49.3506494,22.0227273 Z M42.7397186,27.2148268 C42.7397186,22.7012987 39.9945887,18.7224026 35.1829004,18.7224026 C33.2397186,18.7224026 31.3787879,19.0719697 29.4253247,19.3392857 C27.8933983,19.5757576 26.3614719,19.66829 24.7884199,19.66829 C23.2256494,19.66829 21.6937229,19.5757576 20.1515152,19.3392857 C18.2288961,19.0719697 16.3474026,18.7224026 14.3939394,18.7224026 C9.58225108,18.7224026 6.83712121,22.7012987 6.83712121,27.2148268 C6.83712121,36.2418831 15.103355,37.6298701 22.3003247,37.6298701 L27.2559524,37.6298701 C34.4837662,37.6298701 42.7397186,36.2521645 42.7397186,27.2148268 Z M34.2472944,21.5497835 C31.594697,21.5497835 30.474026,25.0660173 30.474026,27.2148268 C30.474026,29.3636364 31.594697,32.8798701 34.2472944,32.8798701 C36.8998918,32.8798701 38.0205628,29.3636364 38.0205628,27.2148268 C38.0205628,25.0660173 36.8998918,21.5497835 34.2472944,21.5497835 Z" id="Shape"></path>
                </g>
            </g>
        </g>
    </g>
</svg>