<?xml version="1.0" encoding="UTF-8"?>
<svg width="45px" height="50px" viewBox="0 0 45 50" version="1.1" xmlns="http://www.w3.org/2000/svg" xmlns:xlink="http://www.w3.org/1999/xlink">
    <!-- Generator: Sketch 52.2 (67145) - http://www.bohemiancoding.com/sketch -->
    <title>graph</title>
    <desc>Created with Sketch.</desc>
    <g id="Page-1" stroke="none" stroke-width="1" fill="none" fill-rule="evenodd">
        <g id="Letter" transform="translate(-10.000000, -592.000000)">
            <g id="graph" transform="translate(10.000000, 592.000000)">
                <polygon id="Path" fill="#47566E" points="4.14511239 37.9310345 2.29885057 36.8790979 22.8663819 1.72413793 24.7126437 2.77607451"></polygon>
                <polygon id="Path" fill="#47566E" points="1.72413793 33.908046 41.954023 33.908046 41.954023 36.2068966 1.72413793 36.2068966"></polygon>
                <path d="M22.9233732,47.1264368 L2.87356322,35.3622983 L3.91228379,33.5339604 L23.9620938,45.2980989 L22.9233732,47.1264368 Z M40.3405898,16.4660396 L20.2907797,4.70190111 L21.3295003,2.87356322 L41.3793103,14.6377017 L40.3405898,16.4660396 Z" id="Shape" fill="#47566E" fill-rule="nonzero"></path>
                <polygon id="Path" fill="#47566E" points="3.9209447 16.6666667 2.87356322 14.8114539 23.0905496 2.87356322 24.137931 4.72890502"></polygon>
                <path d="M40.1357621,37.9310345 L19.8801637,2.77607451 L21.6984246,1.72413793 L41.954023,36.8790979 L40.1357621,37.9310345 Z M3.44827586,13.1962034 L5.54782587,13.1962034 L5.54782587,36.6429825 L3.44827586,36.6429825 L3.44827586,13.1962034 Z M38.6600061,13.1962034 L40.7595561,13.1962034 L40.7595561,36.6429825 L38.6600061,36.6429825 L38.6600061,13.1962034 Z" id="Shape" fill="#47566E" fill-rule="nonzero"></path>
                <polygon id="Path" fill="#47566E" points="22.7486468 46.5517241 21.8390805 44.9221646 39.3203187 34.4827586 40.2298851 36.1121883"></polygon>
                <path d="M43.6484705,37.5 C42.4295235,39.6322778 39.7122873,40.3600613 37.5918274,39.1343207 C35.4713674,37.9085802 34.7476176,35.1762002 35.9665647,33.0439224 C37.1855117,30.9116445 39.9027478,30.1838611 42.0232078,31.4096016 C44.1563651,32.6481103 44.8801149,35.3677222 43.6484705,37.5 M8.27361154,16.9560776 C7.0546645,19.0883555 4.33742838,19.8161389 2.21696842,18.5903984 C0.0965084625,17.3646578 -0.627241344,14.6322778 0.591705698,12.5 C1.81065274,10.3677222 4.52788886,9.63993871 6.64834882,10.8656793 C8.76880877,12.1041879 9.49255858,14.8237998 8.27361154,16.9560776 M0.604403064,37.5 C-0.614543979,35.3677222 0.109205828,32.6481103 2.22966579,31.4096016 C4.35012575,30.1838611 7.0546645,30.9116445 8.2863089,33.0439224 C9.50525595,35.1762002 8.78150614,37.8958121 6.66104618,39.1343207 C4.52788886,40.3600613 1.82335011,39.6322778 0.604403064,37.5 M35.979262,16.9560776 C34.760315,14.8237998 35.4840648,12.1041879 37.6045247,10.8656793 C39.7249847,9.63993871 42.4295235,10.3677222 43.6611679,12.5 C44.8801149,14.6322778 44.1563651,17.3518897 42.0359051,18.5903984 C39.9154452,19.8161389 37.1982091,19.0883555 35.979262,16.9560776 M22.1264368,50 C19.6758453,50 17.6950564,48.0081716 17.6950564,45.5439224 C17.6950564,43.0796731 19.6758453,41.0878447 22.1264368,41.0878447 C24.5770282,41.0878447 26.5578172,43.0796731 26.5578172,45.5439224 C26.5578172,47.9954035 24.5770282,50 22.1264368,50 M22.1264368,8.91215526 C19.6758453,8.91215526 17.6950564,6.92032686 17.6950564,4.45607763 C17.6950564,1.9918284 19.6758453,0 22.1264368,0 C24.5770282,0 26.5578172,1.9918284 26.5578172,4.45607763 C26.5578172,6.92032686 24.5770282,8.91215526 22.1264368,8.91215526" id="Shape" fill="#C2D0D9" fill-rule="nonzero"></path>
            </g>
        </g>
    </g>
</svg>