<?xml version="1.0" encoding="UTF-8"?>
<svg width="30px" height="30px" viewBox="0 0 30 30" version="1.1" xmlns="http://www.w3.org/2000/svg" xmlns:xlink="http://www.w3.org/1999/xlink">
    <!-- Generator: Sketch 51.3 (57544) - http://www.bohemiancoding.com/sketch -->
    <title>linkedin-in-brands</title>
    <desc>Created with Sketch.</desc>
    <defs></defs>
    <g id="Page-1" stroke="none" stroke-width="1" fill="none" fill-rule="evenodd">
        <g id="linkedin-in-brands" fill="#47566E" fill-rule="nonzero">
            <path d="M6.70155902,29.9331849 L0.494432071,29.9331849 L0.494432071,9.94877506 L6.70155902,9.94877506 L6.70155902,29.9331849 Z M3.59465479,7.22271715 C1.61024499,7.22271715 0,5.57906459 0,3.59465479 C0,1.61024499 1.61024499,0 3.59465479,0 C5.57906459,0 7.18930958,1.61024499 7.18930958,3.59465479 C7.18930958,5.57906459 5.57906459,7.22271715 3.59465479,7.22271715 Z M29.9331849,29.9331849 L23.7394209,29.9331849 L23.7394209,20.2048998 C23.7394209,17.8864143 23.6926503,14.9131403 20.5122494,14.9131403 C17.285078,14.9131403 16.7906459,17.4320713 16.7906459,20.0378619 L16.7906459,29.9331849 L10.5902004,29.9331849 L10.5902004,9.94877506 L16.5434298,9.94877506 L16.5434298,12.674833 L16.6302895,12.674833 C17.4587973,11.1046771 19.4832962,9.44766147 22.5033408,9.44766147 C28.7839644,9.44766147 29.9398664,13.5835189 29.9398664,18.9554566 L29.9398664,29.9331849 L29.9331849,29.9331849 Z" id="Shape"></path>
        </g>
    </g>
</svg>