<?xml version="1.0" encoding="UTF-8"?>
<svg width="50px" height="40px" viewBox="0 0 50 40" version="1.1" xmlns="http://www.w3.org/2000/svg" xmlns:xlink="http://www.w3.org/1999/xlink">
    <!-- Generator: Sketch 51.3 (57544) - http://www.bohemiancoding.com/sketch -->
    <title>medium-m-brands</title>
    <desc>Created with Sketch.</desc>
    <defs></defs>
    <g id="Page-1" stroke="none" stroke-width="1" fill="none" fill-rule="evenodd">
        <g id="Catatek" transform="translate(-74.000000, -5202.000000)" fill="#47566E" fill-rule="nonzero">
            <g id="Group-5" transform="translate(74.000000, 5202.000000)">
                <g id="medium-m-brands">
                    <path d="M5.92309283,8.09573439 C5.98511474,7.48571098 5.74736407,6.87568757 5.2925367,6.46211238 L0.63055613,0.837489764 L0.63055613,0 L15.1230101,0 L26.3283027,24.5767058 L36.1794501,0 L50,0 L50,0.837489764 L46.0099235,4.66306029 C45.668803,4.92154479 45.4930742,5.35579874 45.5654331,5.77971331 L45.5654331,33.9028264 C45.4930742,34.3267409 45.668803,34.7609949 46.0099235,35.0194794 L49.9069671,38.8450499 L49.9069671,39.6825397 L30.2977052,39.6825397 L30.2977052,38.8450499 L34.3394666,34.926425 C34.7322721,34.5335285 34.7322721,34.409456 34.7322721,33.809772 L34.7322721,11.0838151 L23.4959686,39.610164 L21.9764317,39.610164 L8.9104817,11.0838151 L8.9104817,30.2013284 C8.79677486,31.0078 9.06553649,31.8142717 9.6340707,32.3932769 L14.8852595,38.7623349 L14.8852595,39.5998246 L0,39.5998246 L0,38.7726743 L5.25118875,32.3932769 C5.80938598,31.8142717 6.06781063,30.9974606 5.92309283,30.2013284 L5.92309283,8.09573439 Z" id="Shape"></path>
                </g>
            </g>
        </g>
    </g>
</svg>