<?xml version="1.0" encoding="UTF-8"?>
<svg width="100px" height="53px" viewBox="0 0 100 53" version="1.1" xmlns="http://www.w3.org/2000/svg" xmlns:xlink="http://www.w3.org/1999/xlink">
    <!-- Generator: Sketch 52.2 (67145) - http://www.bohemiancoding.com/sketch -->
    <title>mysql-original-wordmark</title>
    <desc>Created with Sketch.</desc>
    <g id="Page-1" stroke="none" stroke-width="1" fill="none" fill-rule="evenodd">
        <g id="Letter" transform="translate(-416.000000, -590.000000)" fill-rule="nonzero">
            <g id="mysql-original-wordmark" transform="translate(416.000000, 590.000000)">
                <path d="M0.000806451613,47.95 L3.31370968,47.95 L3.31370968,34.8669355 L8.44274194,46.2725806 C9.04758065,47.6532258 9.87580645,48.141129 11.5008065,48.141129 C13.1258065,48.141129 13.9225806,47.6532258 14.5274194,46.2725806 L19.6564516,34.8669355 L19.6564516,47.95 L22.9693548,47.95 L22.9693548,34.8887097 C22.9693548,33.6145161 22.4596774,32.9975806 21.4080645,32.6798387 C18.891129,31.8943548 17.2024194,32.5741935 16.4379032,34.2733871 L11.4048387,45.5298387 L6.53145161,34.2725806 C5.7983871,32.5741935 4.07822581,31.8943548 1.56129032,32.6790323 C0.509677419,32.9975806 3.55271368e-15,33.6137097 3.55271368e-15,34.8879032 L3.55271368e-15,47.95 L0.000806451613,47.95 Z M25.725,37.3 L29.0370968,37.3 L29.0370968,44.5080645 C29.0064516,44.8991935 29.1629032,45.8185484 30.9774194,45.8475806 C31.9032258,45.8620968 38.1241935,45.8475806 38.1822581,45.8475806 L38.1822581,37.2645161 L41.5024194,37.2645161 C41.5177419,37.2645161 41.4991935,48.9693548 41.4991935,49.0177419 C41.5169355,51.9048387 37.9177419,52.5314516 36.2580645,52.5798387 L25.7967742,52.5798387 L25.7967742,50.3508065 C25.8145161,50.3508065 36.2508065,50.3532258 36.2766129,50.35 C38.4096774,50.125 38.1572581,49.0653226 38.1564516,48.708871 L38.1564516,47.8395161 L31.1153226,47.8395161 C27.8395161,47.8096774 25.7524194,46.3798387 25.7258065,44.7346774 C25.7241935,44.583871 25.7975806,37.3725806 25.725,37.3 Z" id="Shape" fill="#47566E"></path>
                <path d="M44.0564516,47.95 L53.5822581,47.95 C54.6975806,47.95 55.7814516,47.7169355 56.641129,47.3137097 C58.0741935,46.6556452 58.775,45.7637097 58.775,44.5943548 L58.775,42.1733871 C58.775,41.2177419 57.9790323,40.325 56.4177419,39.7314516 C55.5895161,39.4120968 54.5693548,39.2435484 53.5814516,39.2435484 L49.5669355,39.2435484 C48.2290323,39.2435484 47.5919355,38.8403226 47.4330645,37.9483871 C47.4016129,37.8419355 47.4016129,37.7572581 47.4016129,37.6508065 L47.4016129,36.1427419 C47.4016129,36.0580645 47.4016129,35.9725806 47.4330645,35.8669355 C47.5919355,35.1870968 47.9427419,34.9959677 49.1217742,34.8895161 L49.4403226,34.8685484 L58.9024194,34.8685484 L58.9024194,32.6604839 L49.6,32.6604839 C48.2620968,32.6604839 47.5612903,32.7451613 46.9241935,32.9362903 C44.9491935,33.5524194 44.0879032,34.5290323 44.0879032,36.2282258 L44.0879032,38.1604839 C44.0879032,39.6475806 45.7774194,40.9217742 48.6120968,41.2193548 C48.9314516,41.2395161 49.2491935,41.2620968 49.5677419,41.2620968 L53.008871,41.2620968 C53.1362903,41.2620968 53.2637097,41.2620968 53.3596774,41.2822581 C54.4112903,41.3669355 54.8564516,41.558871 55.1758065,41.9403226 C55.3669355,42.1314516 55.4298387,42.3233871 55.4298387,42.5346774 L55.4298387,44.4677419 C55.4298387,44.7008065 55.2709677,44.9983871 54.9524194,45.2532258 C54.666129,45.5080645 54.1879032,45.6782258 53.5508065,45.7209677 L53.2,45.7419355 L44.0564516,45.7419355 L44.0564516,47.95 Z M79.4443548,44.1064516 C79.4443548,46.3782258 81.1330645,47.6524194 84.541129,47.9080645 C84.8596774,47.9290323 85.1782258,47.95 85.4967742,47.95 L94.1306452,47.95 L94.1306452,45.7419355 L85.433871,45.7419355 C83.4903226,45.7419355 82.7580645,45.2532258 82.7580645,44.0846774 L82.7580645,32.658871 L79.4451613,32.658871 L79.4451613,44.1064516 L79.4443548,44.1064516 Z M60.8895161,44.2209677 L60.8895161,36.3459677 C60.8895161,34.3459677 62.2943548,33.1322581 65.0717742,32.7491935 C65.358871,32.7064516 65.6790323,32.6854839 65.9653226,32.6854839 L72.2548387,32.6854839 C72.5741935,32.6854839 72.8612903,32.7064516 73.1798387,32.7491935 C75.9572581,33.1322581 77.3629032,34.3451613 77.3629032,36.3459677 L77.3629032,44.2209677 C77.3629032,45.8451613 76.766129,46.7129032 75.391129,47.2790323 L78.6556452,50.225 L74.8080645,50.225 L72.1677419,47.841129 L69.5096774,48.0096774 L65.9653226,48.0096774 C65.358871,48.0096774 64.7209677,47.925 64.0185484,47.7330645 C61.9112903,47.158871 60.8895161,46.0516129 60.8895161,44.2209677 Z M64.4653226,44.0298387 C64.4653226,44.1362903 64.4967742,44.2435484 64.5290323,44.3709677 C64.7201613,45.2862903 65.5830645,45.7967742 66.891129,45.7967742 L69.9008065,45.7967742 L67.1362903,43.3008065 L70.983871,43.3008065 L73.3943548,45.4782258 C73.8395161,45.2403226 74.1314516,44.8790323 74.233871,44.4137097 C74.2653226,44.3072581 74.2653226,44.2008065 74.2653226,44.0943548 L74.2653226,36.5395161 C74.2653226,36.4548387 74.2653226,36.3475806 74.233871,36.241129 C74.0419355,35.3895161 73.1798387,34.9008065 71.9032258,34.9008065 L66.8903226,34.9008065 C65.4225806,34.9008065 64.4645161,35.5395161 64.4645161,36.5395161 L64.4645161,44.0298387 L64.4653226,44.0298387 Z" id="Shape" fill="#C2D0D9"></path>
                <path d="M97.0451613,28.9935484 C95.008871,28.9379032 93.4532258,29.1274194 92.1225806,29.6879032 C91.7443548,29.8475806 91.1419355,29.8516129 91.0806452,30.325 C91.2879032,30.5435484 91.3201613,30.8685484 91.4854839,31.1362903 C91.8032258,31.65 92.3395161,32.3387097 92.8177419,32.6991935 C93.3395161,33.0935484 93.8782258,33.516129 94.4395161,33.8580645 C95.4354839,34.466129 96.5483871,34.8129032 97.508871,35.4209677 C98.0741935,35.7806452 98.6354839,36.2322581 99.1879032,36.6379032 C99.4612903,36.8370968 99.6435484,37.1491935 99.9991935,37.2741935 L99.9991935,37.2169355 C99.8129032,36.9798387 99.7645161,36.6540323 99.5935484,36.4056452 L98.8403226,35.6524194 C98.1040323,34.675 97.1701613,33.8177419 96.1758065,33.1048387 C95.383871,32.5362903 93.6112903,31.7677419 93.2806452,30.8459677 L93.2225806,30.7887097 C93.783871,30.725 94.4419355,30.5217742 94.9596774,30.3830645 C95.8306452,30.1491935 96.608871,30.2096774 97.5080645,29.9774194 L98.7241935,29.6290323 L98.7241935,29.3983871 C98.2701613,28.9322581 97.9451613,28.3145161 97.45,27.8927419 C96.1540323,26.7887097 94.7379032,25.6854839 93.2806452,24.7645161 C92.4725806,24.2548387 91.4733871,23.9233871 90.616129,23.491129 C90.3290323,23.3451613 89.8225806,23.2701613 89.6314516,23.0274194 C89.1806452,22.4540323 88.9362903,21.7274194 88.5887097,21.058871 C87.8629032,19.6596774 87.1483871,18.1306452 86.5040323,16.6572581 C86.0653226,15.6532258 85.7782258,14.6629032 85.2306452,13.7620968 C82.6008065,9.43870968 79.7701613,6.82903226 75.3854839,4.26451613 C74.4524194,3.71854839 73.3290323,3.50403226 72.1427419,3.22258065 L70.2314516,3.10645161 C69.8435484,2.94435484 69.4387097,2.46854839 69.0733871,2.23790323 C67.6201613,1.32016129 63.8943548,-0.675806452 62.8185484,1.94919355 C62.1395161,3.60564516 63.8346774,5.22177419 64.4403226,6.06129032 C64.8653226,6.65 65.4104839,7.30967742 65.7145161,7.97177419 C65.9145161,8.40725806 65.9483871,8.84354839 66.1201613,9.30403226 C66.5403226,10.4379032 66.9072581,11.6725806 67.4516129,12.7201613 C67.7266129,13.2508065 68.0306452,13.8096774 68.3782258,14.283871 C68.591129,14.5741935 68.9572581,14.7032258 69.0145161,15.1524194 C68.6572581,15.6524194 68.6362903,16.4298387 68.4354839,17.0629032 C67.5306452,19.9169355 67.8717742,23.4645161 69.1887097,25.5766129 C69.5927419,26.2258065 70.5443548,27.616129 71.8524194,27.0822581 C72.9967742,26.616129 72.7419355,25.1717742 73.0693548,23.8967742 C73.1435484,23.608871 73.0975806,23.3959677 73.2427419,23.2024194 L73.2427419,23.2604839 L74.2854839,25.3451613 C75.0572581,26.5879032 76.4258065,27.8854839 77.5862903,28.7620968 C78.1879032,29.216129 78.6620968,30.0024194 79.4395161,30.2677419 L79.4395161,30.208871 L79.3822581,30.208871 C79.2306452,29.9741935 78.9959677,29.8774194 78.8024194,29.6879032 C78.3491935,29.2435484 77.8451613,28.6919355 77.4709677,28.1822581 C76.4153226,26.75 75.4830645,25.1814516 74.6330645,23.5491935 C74.2274194,22.7701613 73.875,21.9104839 73.5330645,21.1169355 C73.4008065,20.8112903 73.4024194,20.3483871 73.1282258,20.191129 C72.7524194,20.7717742 72.2016129,21.2419355 71.9112903,21.9282258 C71.4483871,23.025 71.3887097,24.3629032 71.2169355,25.75 L71.1008065,25.8072581 C70.2935484,25.6129032 70.0104839,24.7822581 69.7104839,24.0701613 C68.9524194,22.2693548 68.8112903,19.3685484 69.4790323,17.2951613 C69.6516129,16.7580645 70.4314516,15.0685484 70.1153226,14.5725806 C69.9645161,14.0782258 69.4669355,13.7927419 69.1895161,13.4137097 C68.8451613,12.9467742 68.5008065,12.3322581 68.2629032,11.7919355 C67.6419355,10.3879032 67.3524194,8.81129032 66.7,7.39112903 C66.3870968,6.71209677 65.8596774,6.02580645 65.4258065,5.42258065 C64.9459677,4.75322581 64.4080645,4.26129032 64.0354839,3.45322581 C63.9032258,3.16612903 63.7233871,2.70564516 63.9193548,2.41048387 C63.9814516,2.21129032 64.0709677,2.12822581 64.2677419,2.06290323 C64.6032258,1.80403226 65.5387097,2.14919355 65.8887097,2.29435484 C66.8177419,2.68064516 67.5927419,3.04758065 68.3798387,3.56854839 C68.7572581,3.81935484 69.1387097,4.30322581 69.5959677,4.43709677 L70.1169355,4.43709677 C70.9322581,4.62419355 71.8459677,4.49435484 72.6072581,4.72580645 C73.9540323,5.13548387 75.1604839,5.77177419 76.2556452,6.46370968 C79.5935484,8.57177419 82.3217742,11.5717742 84.1895161,15.1508065 C84.4895161,15.7274194 84.6201613,16.2766129 84.883871,16.8879032 C85.4177419,18.1201613 86.0903226,19.3887097 86.6209677,20.5943548 C87.1508065,21.7967742 87.6677419,23.0104839 88.4169355,24.0112903 C88.8104839,24.5370968 90.3314516,24.8193548 91.0225806,25.1112903 C91.5072581,25.316129 92.3008065,25.5298387 92.7596774,25.8056452 C93.6362903,26.3346774 94.4862903,26.9645161 95.3080645,27.5435484 C95.7185484,27.8354839 96.9822581,28.4701613 97.0451613,28.9935484 Z M71.158871,6.92983871 C70.7346774,6.92177419 70.433871,6.9766129 70.116129,7.04596774 L70.116129,7.10322581 L70.1741935,7.10322581 C70.3766129,7.52016129 70.733871,7.78790323 70.9846774,8.14596774 L71.5645161,9.36209677 L71.6217742,9.30483871 C71.9806452,9.05241935 72.1443548,8.6483871 72.1427419,8.03064516 C71.9983871,7.87903226 71.9774194,7.68951613 71.8532258,7.50967742 C71.6887097,7.26774194 71.3677419,7.13225806 71.158871,6.92983871 Z" id="Shape" fill="#47566E"></path>
            </g>
        </g>
    </g>
</svg>