<?xml version="1.0" encoding="UTF-8"?>
<svg width="44px" height="50px" viewBox="0 0 44 50" version="1.1" xmlns="http://www.w3.org/2000/svg" xmlns:xlink="http://www.w3.org/1999/xlink">
    <!-- Generator: Sketch 52.2 (67145) - http://www.bohemiancoding.com/sketch -->
    <title>nodejs-original</title>
    <desc>Created with Sketch.</desc>
    <g id="Page-1" stroke="none" stroke-width="1" fill="none" fill-rule="evenodd">
        <g id="Letter" transform="translate(-351.000000, -592.000000)" fill="#C2D0D9" fill-rule="nonzero">
            <g id="nodejs-original" transform="translate(351.000000, 592.000000)">
                <path d="M42.1192623,11.202459 L24.0467213,0.708606557 C22.9069672,0.0594262295 21.4229508,0.0594262295 20.2741803,0.708606557 L2.00860656,11.202459 C0.832377049,11.8790984 1.0658141e-14,13.1508197 1.0658141e-14,14.5110656 L1.0658141e-14,35.4709016 C1.0658141e-14,36.8311475 0.854098361,38.1032787 2.03032787,38.7836066 L6.85614754,41.5245902 C9.16270492,42.6606557 9.97786885,42.6606557 11.027459,42.6606557 C14.442623,42.6606557 16.3934426,40.5954918 16.3934426,36.9934426 L16.3934426,16.3008197 C16.3934426,16.0086066 16.2413934,15.5737705 15.9545082,15.5737705 L13.65,15.5737705 C13.3581967,15.5737705 12.704918,16.0086066 12.704918,16.3004098 L12.704918,36.9930328 C12.704918,38.5897541 11.2606557,40.1786885 8.56147541,38.8290984 L3.575,35.954918 C3.40122951,35.8606557 3.27868852,35.6709016 3.27868852,35.4709016 L3.27868852,14.5110656 C3.27868852,14.3135246 3.50614754,14.1151639 3.68114754,14.0139344 L21.8877049,3.53811475 C22.0577869,3.44180328 22.3077869,3.44180328 22.477459,3.53811475 L40.4618852,14.0114754 C40.6340164,14.1151639 40.5733607,14.307377 40.5733607,14.5110656 L40.5733607,35.4709016 C40.5733607,35.6709016 40.6483607,35.8655738 40.4782787,35.9618852 L22.4102459,46.4438525 C22.2553279,46.5368852 22.0631148,46.5368852 21.8934426,46.4438525 L17.2594262,43.6778689 C17.1196721,43.5967213 16.9536885,43.567623 16.8196721,43.642623 C15.5303279,44.3733607 15.292623,44.4704918 14.0831967,44.8897541 C13.7856557,44.9934426 13.3467213,45.1733607 14.2512295,45.6803279 L20.3159836,49.2680328 C20.8967213,49.6040984 21.5565574,49.7786885 22.2204918,49.7786885 C22.8934426,49.7786885 23.552459,49.6040984 24.1331967,49.2680328 L42.1188525,38.7836066 C43.295082,38.0983607 43.852459,36.8311475 43.852459,35.4709016 L43.852459,14.5110656 C43.852459,13.1508197 43.295082,11.882377 42.1192623,11.202459 Z M27.8319672,32.1495902 C23.0262295,32.1495902 21.967623,30.8237705 21.6147541,28.4340164 C21.5737705,28.1766393 21.3553279,27.8688525 21.0934426,27.8688525 L18.7446721,27.8688525 C18.4540984,27.8688525 18.2204918,28.2213115 18.2204918,28.5106557 C18.2204918,31.5704918 19.8840164,35.2778689 27.832377,35.2778689 C33.5860656,35.2778689 36.8848361,33.0422131 36.8848361,29.0856557 C36.8848361,25.1627049 34.2344262,24.1331967 28.6545082,23.3946721 C23.0143443,22.6491803 22.4413934,22.272541 22.4413934,20.9512295 C22.4413934,19.8618852 22.9266393,18.4090164 27.1028689,18.4090164 C30.8344262,18.4090164 32.2098361,19.2098361 32.7758197,21.725 C32.8241803,21.9614754 33.0401639,22.1311475 33.2840164,22.1311475 L35.6422131,22.1311475 C35.7872951,22.1311475 35.9258197,22.072541 36.027459,21.9688525 C36.1258197,21.857377 36.1778689,21.717623 36.1647541,21.567623 C35.7995902,17.2364754 32.9221311,15.2180328 27.102459,15.2180328 C21.9258197,15.2180328 18.8377049,17.4040984 18.8377049,21.0684426 C18.8377049,25.0430328 21.9102459,26.1413934 26.8795082,26.6327869 C32.8241803,27.2155738 33.2864754,28.0844262 33.2864754,29.2536885 C33.2864754,31.2844262 31.6561475,32.1495902 27.8319672,32.1495902 Z" id="Shape"></path>
            </g>
        </g>
    </g>
</svg>