<?xml version="1.0" encoding="UTF-8"?>
<svg width="57px" height="50px" viewBox="0 0 57 50" version="1.1" xmlns="http://www.w3.org/2000/svg" xmlns:xlink="http://www.w3.org/1999/xlink">
    <!-- Generator: Sketch 52.2 (67145) - http://www.bohemiancoding.com/sketch -->
    <title>react-original</title>
    <desc>Created with Sketch.</desc>
    <g id="Page-1" stroke="none" stroke-width="1" fill="none" fill-rule="evenodd">
        <g id="Letter" transform="translate(-75.000000, -592.000000)" fill="#C2D0D9">
            <g id="react-original" transform="translate(75.000000, 592.000000)">
                <circle id="Oval" cx="28.125" cy="25" r="5.08928571"></circle>
                <path d="M47.4553571,16.6071429 C46.4732143,16.25 45.4464286,15.8928571 44.375,15.5803571 C44.6428571,14.5089286 44.8660714,13.4375 45.0446429,12.4107143 C45.9821429,6.51785714 44.9553571,2.36607143 42.0982143,0.758928571 C41.25,0.267857143 40.3125,0.0446428571 39.2410714,0.0446428571 C36.1160714,0.0446428571 32.1428571,2.36607143 28.125,6.25 C24.1071429,2.36607143 20.1339286,0.0446428571 17.0089286,0.0446428571 C15.9375,0.0446428571 15,0.267857143 14.1517857,0.758928571 C11.2946429,2.41071429 10.2678571,6.5625 11.2053571,12.4107143 C11.3839286,13.4375 11.6071429,14.5089286 11.875,15.5803571 C10.8035714,15.8928571 9.77678571,16.2053571 8.79464286,16.6071429 C3.21428571,18.75 0.178571429,21.6964286 0.178571429,25 C0.178571429,28.3035714 3.25892857,31.25 8.79464286,33.3928571 C9.77678571,33.75 10.8035714,34.1071429 11.875,34.4196429 C11.6071429,35.4910714 11.3839286,36.5625 11.2053571,37.5892857 C10.2678571,43.4821429 11.2946429,47.6339286 14.1517857,49.2410714 C15,49.7321429 15.9375,49.9553571 17.0089286,49.9553571 C20.1785714,49.9553571 24.1517857,47.6339286 28.125,43.75 C32.1428571,47.6339286 36.1160714,49.9553571 39.2410714,49.9553571 C40.3125,49.9553571 41.25,49.7321429 42.0982143,49.2410714 C44.9553571,47.5892857 45.9821429,43.4375 45.0446429,37.5892857 C44.8660714,36.5625 44.6428571,35.4910714 44.375,34.4196429 C45.4464286,34.1071429 46.4732143,33.7946429 47.4553571,33.3928571 C53.0357143,31.25 56.0714286,28.3035714 56.0714286,25 C56.0714286,21.6964286 53.0357143,18.75 47.4553571,16.6071429 Z M40.8482143,2.99107143 C42.6785714,4.0625 43.3035714,7.36607143 42.5446429,12.0535714 C42.4107143,12.9910714 42.1875,13.9732143 41.9196429,15 C39.5982143,14.4642857 37.1428571,14.1071429 34.5535714,13.8839286 C33.0357143,11.7410714 31.4732143,9.82142857 29.9107143,8.08035714 C33.2142857,4.82142857 36.5625,2.58928571 39.2857143,2.58928571 C39.8660714,2.58928571 40.4017857,2.72321429 40.8482143,2.99107143 Z M35.8482143,29.4642857 C35.0446429,30.8928571 34.1071429,32.3214286 33.125,33.75 C31.4732143,33.8839286 29.8214286,33.9285714 28.125,33.9285714 C26.3839286,33.9285714 24.7321429,33.8839286 23.125,33.75 C22.1428571,32.3214286 21.25,30.8928571 20.4464286,29.4642857 C19.5982143,27.9910714 18.7946429,26.4732143 18.0803571,25 C18.7946429,23.5267857 19.5982143,22.0089286 20.4464286,20.5357143 C21.25,19.1071429 22.1875,17.6785714 23.1696429,16.25 C24.8214286,16.1160714 26.4732143,16.0714286 28.1696429,16.0714286 C29.9107143,16.0714286 31.5625,16.1160714 33.1696429,16.25 C34.1517857,17.6785714 35.0446429,19.1071429 35.8482143,20.5357143 C36.6964286,22.0089286 37.5,23.5267857 38.2142857,25 C37.4553571,26.4732143 36.6964286,27.9464286 35.8482143,29.4642857 Z M39.5535714,27.9910714 C40.2232143,29.5535714 40.7589286,31.0714286 41.25,32.5892857 C39.7321429,32.9464286 38.125,33.2142857 36.4285714,33.4375 C36.9642857,32.5892857 37.5446429,31.6964286 38.0357143,30.7589286 C38.5714286,29.8214286 39.0625,28.8839286 39.5535714,27.9910714 Z M28.125,40.0892857 C27.0535714,38.9285714 26.0267857,37.6785714 25.0446429,36.3839286 C26.0714286,36.4285714 27.0982143,36.4732143 28.125,36.4732143 C29.1517857,36.4732143 30.1785714,36.4285714 31.2053571,36.3839286 C30.2232143,37.6785714 29.1964286,38.9285714 28.125,40.0892857 Z M19.8214286,33.3928571 C18.125,33.1696429 16.5178571,32.9017857 15,32.5446429 C15.4910714,31.0714286 16.0267857,29.5089286 16.6964286,27.9464286 C17.1875,28.8392857 17.6785714,29.7767857 18.2142857,30.6696429 C18.75,31.6517857 19.2857143,32.5 19.8214286,33.3928571 Z M16.6964286,22.0089286 C16.0267857,20.4464286 15.4910714,18.9285714 15,17.4107143 C16.5178571,17.0535714 18.125,16.7857143 19.8214286,16.5625 C19.2857143,17.4107143 18.7053571,18.3035714 18.2142857,19.2410714 C17.6785714,20.1785714 17.1875,21.1160714 16.6964286,22.0089286 Z M28.125,9.91071429 C29.1964286,11.0714286 30.2232143,12.3214286 31.2053571,13.6160714 C30.1785714,13.5714286 29.1517857,13.5267857 28.125,13.5267857 C27.0982143,13.5267857 26.0714286,13.5714286 25.0446429,13.6160714 C26.0267857,12.3214286 27.0535714,11.0714286 28.125,9.91071429 Z M38.0357143,19.2857143 L36.4285714,16.6071429 C38.125,16.8303571 39.7321429,17.0982143 41.25,17.4553571 C40.7589286,18.9285714 40.2232143,20.4910714 39.5535714,22.0535714 C39.0625,21.1160714 38.5714286,20.1785714 38.0357143,19.2857143 Z M13.7053571,12.0535714 C12.9464286,7.36607143 13.5714286,4.0625 15.4017857,2.99107143 C15.8482143,2.72321429 16.3839286,2.58928571 16.9642857,2.58928571 C19.6428571,2.58928571 22.9910714,4.77678571 26.3392857,8.08035714 C24.7767857,9.77678571 23.2142857,11.7410714 21.6964286,13.8839286 C19.1071429,14.1071429 16.6517857,14.5089286 14.3303571,15 C14.0625,13.9732143 13.8839286,12.9910714 13.7053571,12.0535714 Z M2.67857143,25 C2.67857143,22.9017857 5.22321429,20.6696429 9.6875,19.0178571 C10.5803571,18.6607143 11.5625,18.3482143 12.5446429,18.0803571 C13.2589286,20.3125 14.1517857,22.6785714 15.2232143,25.0446429 C14.1517857,27.4107143 13.2142857,29.7321429 12.5446429,31.9642857 C6.38392857,30.1785714 2.67857143,27.5 2.67857143,25 Z M15.4017857,47.0089286 C13.5714286,45.9375 12.9464286,42.6339286 13.7053571,37.9464286 C13.8392857,37.0089286 14.0625,36.0267857 14.3303571,35 C16.6517857,35.5357143 19.1071429,35.8928571 21.6964286,36.1160714 C23.2142857,38.2589286 24.7767857,40.1785714 26.3392857,41.9196429 C23.0357143,45.1785714 19.6875,47.4107143 16.9642857,47.4107143 C16.3839286,47.4107143 15.8482143,47.2767857 15.4017857,47.0089286 Z M42.5446429,37.9464286 C43.3035714,42.6339286 42.6785714,45.9375 40.8482143,47.0089286 C40.4017857,47.2767857 39.8660714,47.4107143 39.2857143,47.4107143 C36.6071429,47.4107143 33.2589286,45.2232143 29.9107143,41.9196429 C31.4732143,40.2232143 33.0357143,38.2589286 34.5535714,36.1160714 C37.1428571,35.8928571 39.5982143,35.4910714 41.9196429,35 C42.1875,36.0267857 42.3660714,37.0089286 42.5446429,37.9464286 Z M46.5625,30.9821429 C45.6696429,31.3392857 44.6875,31.6517857 43.7053571,31.9196429 C42.9910714,29.6875 42.0982143,27.3214286 41.0267857,24.9553571 C42.0982143,22.5892857 43.0357143,20.2678571 43.7053571,18.0357143 C49.8660714,19.8214286 53.5714286,22.5 53.5714286,25 C53.5714286,27.0982143 50.9821429,29.3303571 46.5625,30.9821429 Z" id="Shape" fill-rule="nonzero"></path>
            </g>
        </g>
    </g>
</svg>