<?xml version="1.0" encoding="UTF-8"?>
<svg width="57px" height="49px" viewBox="0 0 57 49" version="1.1" xmlns="http://www.w3.org/2000/svg" xmlns:xlink="http://www.w3.org/1999/xlink">
    <!-- Generator: Sketch 52.2 (67145) - http://www.bohemiancoding.com/sketch -->
    <title>vuejs-original</title>
    <desc>Created with Sketch.</desc>
    <g id="Page-1" stroke="none" stroke-width="1" fill="none" fill-rule="evenodd">
        <g id="Letter" transform="translate(-273.000000, -592.000000)">
            <g id="vuejs-original" transform="translate(273.000000, 592.000000)">
                <path d="M-1.03236594e-08,0.416830357 L22.25625,0.487633929 L28.5808036,11.4117411 L35.0236607,0.487633929 L57.1428571,0.416830357 L28.6455357,49.586875 L-1.03236594e-08,0.416830357 Z M56.6875,0.701383929 L45.8125,0.710625 L28.6357143,30.198125 L11.4691964,0.710625 L0.420535704,0.701964286 L28.6397321,48.8671429 L56.6875,0.701383929 Z M45.4602678,0.697669643 L35.30625,0.772625 L28.5861607,11.77575 L21.9714286,0.772625 L11.7955357,0.697669643 L28.6397321,29.4815982 L45.4602678,0.697669643 Z M11.6058036,0.621830357 L21.8745536,0.625714286 L11.6058036,0.621830357 Z M11.6058036,0.621830357 L21.8745536,0.625714286 L11.6058036,0.621830357 Z" id="Shape"></path>
                <polygon id="Path" fill="#35495E" points="11.6058036 0.621830357 21.8745536 0.625714286 28.5870536 11.7676786 35.2758929 0.626607143 45.5357143 0.6240625 28.6383929 29.9343304"></polygon>
                <polygon id="Path" fill="#C2D0D9" points="0.406553571 0.700267857 11.5967321 0.623883929 28.6284286 29.9354911 45.5266429 0.625669643 56.7364643 0.637410714 28.6266429 48.8784821"></polygon>
            </g>
        </g>
    </g>
</svg>